<svg width="98" height="105" viewBox="0 0 98 105" fill="none" xmlns="http://www.w3.org/2000/svg">
<path d="M46.9995 0C47.2075 0.258561 47.4154 0.517123 47.649 0.807804C47.5482 2.62898 47.4762 4.4903 45.8878 5.52133C45.0096 5.07808 45.016 3.98602 44.6769 3.18464C44.6097 3.02565 44.8017 2.62416 44.952 2.41699C45.5471 1.59473 46.1725 0.802986 46.7868 0C46.8572 0 46.9291 0 46.9995 0Z" fill="white" fill-opacity="0.2"/>
<path d="M70.8594 89.61C72.3886 90.2251 73.8075 91.0666 75.1544 92.0832C76.3493 92.9857 76.4084 94.9787 75.8294 96.1029C75.4951 96.7501 75.0888 97.4054 74.5913 97.8486C73.7403 98.6098 72.8109 98.1907 72.0015 97.6623C71.0114 97.0167 70.0852 96.2218 69.135 95.483C68.5608 95.0366 68.484 94.5162 68.8087 93.747C68.9959 93.3021 69.1286 92.8203 69.2694 92.3466C69.5925 91.2657 70.1764 90.4242 70.8594 89.61Z" fill="white" fill-opacity="0.2"/>
<path d="M6.40001 60.2207C6.78872 60.4343 7.19822 60.6591 7.71329 60.9418C7.71329 61.6789 7.71969 62.445 7.71169 63.211C7.70049 64.2902 7.64611 65.3694 7.6765 66.4454C7.6941 67.0364 7.77248 67.6612 7.95643 68.2008C8.5115 69.8276 8.16918 71.2088 7.35178 72.5369C6.60956 73.7446 4.61485 73.6916 4.24854 71.8688C3.92062 70.2372 3.91742 68.6296 3.96861 66.9947C3.9862 66.4374 4.08378 65.885 4.14137 65.3293C4.34932 63.3331 5.19551 61.3995 6.40001 60.2207Z" fill="white" fill-opacity="0.2"/>
<path d="M48.7575 96.4739C50.1444 96.9316 51.1377 97.8727 52.1087 98.8668C52.403 99.1671 52.7389 99.4369 53.0909 99.6136C54.0538 100.1 54.2106 100.863 53.8827 101.941C53.0701 104.61 51.6976 105.96 49.2294 104.216C48.4744 103.683 47.8137 102.938 47.1371 102.251C46.6828 101.79 46.662 101.228 46.9324 100.519C47.0907 100.107 47.1787 99.6537 47.2971 99.2201C47.5946 98.1312 48.1289 97.2399 48.7575 96.4739Z" fill="white" fill-opacity="0.2"/>
<path d="M26.5567 97.9289C26.5087 100.018 25.2978 102.069 22.7448 100.916C21.921 100.543 21.1228 100.086 20.3246 99.6393C19.8319 99.3647 19.6576 98.8781 19.8239 98.2758C20.0223 97.5531 20.2494 96.8417 20.4702 96.1286C20.5198 95.968 20.5918 95.8171 20.6605 95.6661C21.5051 93.8032 21.5723 93.7647 23.2007 94.4536C23.8646 94.7347 24.5204 95.0446 25.1714 95.3674C26.2944 95.9247 26.5663 96.445 26.5567 97.9289Z" fill="white" fill-opacity="0.2"/>
<path d="M92.5339 66.7891C94.0583 67.4893 94.9493 68.7805 95.6739 70.2869C96.1826 71.3452 96.1826 72.4389 95.6292 73.433C95.2597 74.0995 94.7798 74.7017 94.2679 75.214C93.7192 75.7649 92.286 75.4581 91.7421 74.7001C91.2078 73.9581 90.6896 73.1792 90.2817 72.3313C90.1009 71.9571 90.1121 71.334 90.2161 70.8875C90.3664 70.2499 90.6672 69.6605 90.9311 69.0695C91.3406 68.1573 91.8797 67.3785 92.5339 66.7891Z" fill="white" fill-opacity="0.2"/>
<path d="M19.4593 12.2985C19.6337 15.1699 18.5891 16.3021 17.431 17.2497C16.5576 17.9643 15.5163 17.2593 15.2587 16.0259C15.0588 15.072 14.7725 14.1373 14.4525 13.2331C14.1694 12.4317 14.179 11.7958 14.6893 11.11C15.1516 10.4885 15.4427 9.6743 15.9002 9.04636C16.596 8.09081 16.6504 8.09081 17.5126 8.77013C18.8147 9.79474 19.2978 11.4248 19.4593 12.2985Z" fill="white" fill-opacity="0.2"/>
<path d="M38.9454 59.2234C39.1774 59.4225 39.3453 59.5735 39.5165 59.7148C39.822 59.9653 40.3371 60.1533 40.3947 60.4696C40.513 61.1088 40.4155 61.8219 40.3499 62.4948C40.2747 63.2544 40.1515 64.0076 40.0156 64.756C39.942 65.1671 39.8684 65.62 39.6748 65.946C39.3053 66.5659 38.8894 67.1682 38.4191 67.6692C37.7777 68.3534 36.0261 67.984 35.5447 67.1168C35.2135 66.5193 35.3111 65.8432 35.5031 65.2522C36.1957 63.1163 37.1667 61.1907 38.5359 59.596C38.6367 59.4787 38.7583 59.392 38.9454 59.2234Z" fill="white" fill-opacity="0.2"/>
<path d="M49.7828 24.3127C50.6178 25.0274 51.4288 25.628 52.1502 26.3604C53.4123 27.6419 53.3195 29.4518 52.203 30.7109C50.7809 32.3137 49.1573 32.0583 48.0504 30.0573C47.972 29.9144 47.8937 29.7714 47.8169 29.6285C47.1402 28.3614 47.145 28.3646 47.8681 27.067C48.1624 26.5402 48.4023 25.9637 48.7302 25.4739C48.9926 25.0804 49.3493 24.7817 49.7828 24.3127Z" fill="white" fill-opacity="0.2"/>
<path d="M67.9963 80.7193C68.1627 82.4843 67.1293 83.3724 66.2463 84.3376C66.0416 84.5608 65.6209 84.6652 65.3506 84.5801C64.4772 84.307 63.6022 83.9907 62.7784 83.5474C62.3001 83.2905 62.1721 81.4452 62.5832 80.8269C63.2263 79.8633 63.9285 78.9528 64.6531 78.0823C64.8019 77.9041 65.2098 77.8735 65.4209 77.9892C66.1232 78.3682 66.8174 78.7954 67.4636 79.2996C67.8507 79.6 68.0747 80.1203 67.9963 80.7193Z" fill="white" fill-opacity="0.2"/>
<path d="M32.8257 34.9202C34.2654 35.6107 35.1803 36.9838 36.0457 38.3842C36.468 39.07 36.2793 39.9051 35.8954 40.5539C35.5498 41.1401 35.1244 41.6797 34.6637 42.1326C34.0414 42.7445 32.7441 42.5501 32.2867 41.7054C31.7284 40.6728 31.2933 39.5357 30.8502 38.4164C30.7622 38.1947 30.799 37.7692 30.9206 37.5716C31.4836 36.6594 31.8644 35.5401 32.8257 34.9202Z" fill="white" fill-opacity="0.2"/>
<path d="M5.41295 45.306C4.92987 45.0699 4.89308 44.5769 4.92667 44.1031C5.00185 43.032 5.11223 41.964 5.2258 40.8976C5.32177 40.0031 5.41615 39.1038 5.56012 38.2205C5.82085 36.629 6.48789 35.2751 7.30209 34.0273C7.56762 33.621 7.87635 33.637 8.22186 33.9566C8.72414 34.4208 9.00247 34.9218 9.01847 35.7762C9.07925 38.7986 8.18987 41.3312 6.60626 43.5635C6.21755 44.1112 5.84325 44.6765 5.41295 45.306Z" fill="white" fill-opacity="0.2"/>
<path d="M75.7495 56.7518C75.4344 56.7967 75.1912 56.8594 74.9481 56.8626C74.3306 56.8722 73.8348 56.5558 73.606 55.8428C73.2077 54.603 72.8638 53.3359 72.4895 52.0848C72.3391 51.5854 72.4175 51.1662 72.7022 50.7711C73.0718 50.2572 73.3949 49.6855 73.798 49.2166C73.9659 49.0206 74.3274 48.8777 74.5322 48.9612C76.3941 49.7273 77.7122 52.6501 76.7812 54.9001C76.5141 55.5441 76.1158 56.1046 75.7495 56.7518Z" fill="white" fill-opacity="0.2"/>
<path d="M76.6021 30.2677C76.6388 29.8951 76.5877 29.5659 76.698 29.4069C77.4354 28.3421 77.7778 26.9177 78.7743 26.0777C79.1662 25.7485 79.4925 25.5943 79.9228 25.8641C80.7562 26.3893 81.612 26.8663 82.4214 27.4428C82.8997 27.7833 82.9669 28.5847 82.6022 29.5514C82.2039 30.6082 81.4377 31.249 80.6331 31.7773C80.4107 31.9235 80.054 31.9395 79.8141 31.8319C78.7375 31.3485 77.6802 30.7993 76.6021 30.2677Z" fill="white" fill-opacity="0.2"/>
<path d="M51.3571 48.7524C51.6738 49.0367 52.0433 49.2101 52.1952 49.5362C52.5903 50.3873 53.067 51.2385 53.0366 52.2824C52.9807 54.2127 52.5424 55.9584 51.1795 57.1131C50.8324 57.4086 50.3477 57.6254 49.935 57.6046C48.9896 57.5564 48.7993 57.1581 48.9576 56.005C49.0984 54.9868 49.268 53.9719 49.3527 52.9472C49.4935 51.2433 50.2421 50.0035 51.3571 48.7524Z" fill="white" fill-opacity="0.2"/>
<path d="M19.8592 31.1992C20.7853 31.3148 21.0941 31.8994 21.3212 32.6992C21.6843 33.9775 21.9387 35.2479 21.8379 36.6226C21.7339 38.0647 21.0093 38.985 20.1519 39.7526C19.4961 40.3404 18.4243 40.0208 18.3875 38.72C18.3523 37.4721 18.162 36.2323 18.082 34.9845C18.0052 33.7945 18.7746 33.0654 19.1985 32.1548C19.3697 31.787 19.6496 31.4963 19.8592 31.1992Z" fill="white" fill-opacity="0.2"/>
<path d="M37.2951 13.8162C37.8438 14.3911 38.4484 15.0239 39.0531 15.6582C39.7825 16.421 39.9249 17.3509 39.6321 18.451C39.2178 20.0056 37.3943 21.1683 36.2809 20.4938C35.9258 20.2786 35.5931 19.8851 35.3772 19.474C35.1148 18.9745 34.9485 18.3819 34.8125 17.8054C34.7405 17.497 34.7053 17.0136 34.8461 16.8177C35.5755 15.8044 36.0362 14.4553 37.2951 13.8162Z" fill="white" fill-opacity="0.2"/>
<path d="M84.7438 83.9538C84.7342 85.457 83.8912 86.2503 83.0898 86.9554C82.7683 87.238 82.1061 87.1786 81.6838 86.9923C80.972 86.6775 80.2985 86.1845 79.6699 85.6577C79.4987 85.5148 79.406 84.8933 79.5115 84.6427C79.9898 83.5121 80.5449 82.4297 81.0871 81.3424C81.3447 80.8237 81.6774 80.6872 82.1509 81.0212C82.7571 81.4484 83.4242 81.7504 84.0224 82.1936C84.5519 82.5855 84.9198 83.1572 84.7438 83.9538Z" fill="white" fill-opacity="0.2"/>
<path d="M64.7346 69.4534C64.6051 68.3581 64.4611 67.2131 64.3427 66.0632C64.3171 65.8159 64.3251 65.4915 64.4339 65.3084C65.0881 64.2131 65.3985 62.7886 66.4622 62.0771C67.5244 62.204 67.9467 63.1564 68.3082 64.2259C68.6537 65.2522 68.6441 66.296 68.2234 67.2179C67.8523 68.0289 67.3356 68.7773 66.7741 69.41C66.1983 70.0605 65.48 69.9127 64.7346 69.4534Z" fill="white" fill-opacity="0.2"/>
<path d="M63.2195 41.2671C64.7392 41.6959 64.6304 43.1927 64.7424 44.4646C64.9039 46.2954 64.0753 48.0186 62.7477 48.775C62.167 49.1058 61.5784 48.9934 61.0409 48.5919C60.9081 48.494 60.7562 48.2579 60.761 48.0909C60.7913 46.8944 60.6122 45.5647 60.9817 44.5385C61.4392 43.2681 62.0614 41.9271 63.2195 41.2671Z" fill="white" fill-opacity="0.2"/>
<path d="M56.4564 4.9978C56.9507 5.4009 57.4034 5.72049 57.8033 6.12038C57.9712 6.289 58.1456 6.65195 58.1136 6.88482C58.0016 7.70868 57.992 8.56467 57.5026 9.28093C56.8755 10.1995 56.3476 11.2113 55.511 11.9003C54.7992 12.4864 53.4555 12.3371 52.9181 11.5405C52.587 11.0491 52.7709 10.5304 52.9309 10.0775C53.5339 8.35428 55.0744 6.16534 56.4564 4.9978Z" fill="white" fill-opacity="0.2"/>
<path d="M25.5746 12.6213C25.9089 12.9682 26.0464 13.2139 26.232 13.2862C27.1646 13.6524 27.1006 14.526 27.0798 15.4687C27.0334 17.5693 25.9873 18.8621 24.7124 19.9141C24.3237 20.2336 23.7158 20.2449 23.2103 20.2304C22.6745 20.2144 22.5481 19.5752 22.5817 19.0789C22.6569 17.9692 22.7768 16.8595 23.3991 15.9393C23.639 15.5844 23.7414 15.0881 23.9829 14.7348C24.4692 14.0217 25.0099 13.3633 25.5746 12.6213Z" fill="white" fill-opacity="0.2"/>
<path d="M3.55118 23.3301C3.91909 23.5694 4.19583 23.7492 4.55254 23.9805C4.2982 26.6336 4.12224 29.3075 2.30829 31.2363C2.07954 31.4788 1.79481 31.7133 1.50688 31.7903C0.34557 32.1067 -0.295873 31.368 0.134421 30.0414C0.926227 27.602 1.8396 25.2107 3.55118 23.3301Z" fill="white" fill-opacity="0.2"/>
<path d="M27.0796 51.6593C27.5387 51.9516 27.873 52.1636 28.2026 52.374C28.3017 53.2621 28.065 53.9896 27.6859 54.6946C26.9949 55.9826 26.571 57.4842 25.5408 58.5023C24.8754 59.1592 24.114 59.3583 23.4149 58.8685C22.8967 58.5056 23.0822 57.8969 23.263 57.497C23.786 56.3343 24.3299 55.1635 25.0001 54.1293C25.584 53.2267 26.3518 52.5089 27.0796 51.6593Z" fill="white" fill-opacity="0.2"/>
<path d="M41.489 79.1903C41.4026 80.9778 40.5708 81.9398 39.6334 82.656C38.7072 83.3642 37.2484 82.4697 36.9717 81.1737C36.9141 80.9055 36.9045 80.541 37.0101 80.3145C37.37 79.5356 37.7827 78.7937 38.189 78.0485C38.4465 77.5763 38.8576 77.3033 39.2735 77.4607C39.9549 77.7193 40.6172 78.0902 41.2458 78.5094C41.4234 78.6299 41.4538 79.0811 41.489 79.1903Z" fill="white" fill-opacity="0.2"/>
<path d="M20.4365 75.6733C21.5931 75.8147 21.9802 76.8891 22.444 77.8109C22.6104 78.1401 22.5832 78.6267 22.6136 79.0443C22.6264 79.2065 22.5816 79.3944 22.5176 79.5421C22.2969 80.0528 22.6328 80.8783 22.0521 81.1336C21.3803 81.4308 20.7245 81.8901 19.9471 81.7102C19.0209 81.495 18.5426 80.7627 18.645 79.6144C18.7442 78.5207 19.7039 76.4105 20.4365 75.6733Z" fill="white" fill-opacity="0.2"/>
<path d="M91.3617 20.0554C91.9311 20.6223 92.5246 20.9483 92.7213 21.9505C92.9437 23.0843 92.8141 23.982 92.211 24.7802C91.8575 25.2475 91.4192 25.6346 90.9793 25.9847C90.4323 26.4215 89.4485 26.2127 88.9126 25.6153C88.5511 25.2122 88.3992 24.0254 88.7783 23.4392C89.5077 22.3054 90.018 20.9178 91.1121 20.1775C91.1729 20.1373 91.2401 20.1148 91.3617 20.0554Z" fill="white" fill-opacity="0.2"/>
<path d="M96.6722 46.8702C96.7954 46.9971 96.9137 47.177 97.0673 47.2621C97.5712 47.5415 98.0351 47.8965 97.9967 48.6529C97.9599 49.3611 97.9647 50.1994 97.6608 50.7278C97.2097 51.5099 96.541 52.133 95.8932 52.6967C95.4277 53.1014 94.7654 52.9215 94.3863 52.3932C93.9976 51.8552 93.8233 51.1871 94.0184 50.4724C94.2312 49.6999 94.4999 48.9516 94.7254 48.1855C94.9334 47.4789 95.2341 46.9666 95.9348 47.018C96.1683 47.0324 96.4098 46.9264 96.6722 46.8702Z" fill="white" fill-opacity="0.2"/>
<path d="M70.6259 25.2008C69.2087 25.1559 68.7688 24.4492 69.0087 23.1596C69.0935 22.7003 69.1783 22.241 69.2439 21.7769C69.511 19.914 70.3684 19.4017 71.7057 20.3122C72.9822 21.1811 73.1709 22.5863 72.1136 23.8614C71.6081 24.4717 71.0994 25.1928 70.6259 25.2008Z" fill="white" fill-opacity="0.2"/>
<path d="M80.8874 56.5447C81.7336 57.0682 82.5686 57.5018 82.7142 58.6356C82.7829 59.1672 82.6166 59.8738 82.351 60.3155C81.3593 61.9728 80.3931 62.7726 78.5264 60.7411C79.0462 59.164 79.6397 57.6207 80.8874 56.5447Z" fill="white" fill-opacity="0.2"/>
<path d="M85.731 48.245C86.2588 46.6487 86.9259 45.2499 88.0808 44.1594C88.2535 44.2879 88.4215 44.4132 88.591 44.54C89.3637 45.1198 89.466 45.3671 89.2037 46.3548C89.0421 46.9635 88.8246 47.5561 88.5862 48.1278C88.5015 48.3285 88.2839 48.5678 88.1192 48.5758C87.3673 48.616 86.5883 48.9436 85.731 48.245Z" fill="white" fill-opacity="0.2"/>
<path d="M70.1011 0.937866C70.3907 1.15788 70.6274 1.33454 70.861 1.51923C70.9169 1.56419 70.9601 1.63486 71.0065 1.68946C70.7666 4.08075 69.1798 5.33502 67.6313 4.21405C68.3096 2.9903 68.9206 1.72961 70.1011 0.937866Z" fill="white" fill-opacity="0.2"/>
<path d="M78.8301 7.63804C79.5787 6.66483 80.2361 5.80724 80.9304 4.90308C81.2615 5.14718 81.4918 5.31742 81.7318 5.49407C81.7765 6.1734 81.4662 6.61825 81.1159 7.04865C80.3097 8.03954 79.873 8.18729 78.8301 7.63804Z" fill="white" fill-opacity="0.2"/>
</svg>
