<svg xmlns="http://www.w3.org/2000/svg" width="192" height="40" viewBox="0 0 192 40" fill="none"><path d="M34.0146 8.69531H38.3033V18.272H47.3484V8.69531H51.6426V32.2032H47.3484V22.4253H38.3033V32.2032H34.0146V8.69531ZM65.229 24.5463C65.229 26.5142 63.6339 28.1155 61.6764 28.1155C59.7183 28.1155 58.1241 26.5142 58.1241 24.5463V14.4253H54.0569V24.5463C54.0569 28.7687 57.4752 32.2032 61.6764 32.2032C65.8767 32.2032 69.2947 28.7687 69.2947 24.5463V14.4253H65.229V24.5463ZM80.6487 14.5439C78.6312 14.5439 77.223 15.1323 75.863 16.4741V8.69531H71.7826V23.1115C71.7826 28.5076 75.6643 32.2032 80.0253 32.2032C84.8735 32.2032 89.1213 28.4417 89.1213 23.3738C89.1213 18.37 85.2043 14.5439 80.6487 14.5439ZM80.7501 28.4091C77.9852 28.4091 75.8709 26.0882 75.8709 23.3738C75.8709 20.6588 77.9852 18.3372 80.7501 18.3372C83.0928 18.3372 85.2083 20.6588 85.2083 23.3738C85.2083 26.0882 83.0928 28.4091 80.7501 28.4091ZM95.9744 15.5771C95.9744 13.5155 97.3411 12.8619 98.8373 12.8619C100.042 12.8619 101.636 13.7775 102.676 14.8897L105.343 11.7505C104.01 9.9521 101.31 8.70908 99.0977 8.70908C94.6724 8.70908 91.4837 11.2927 91.4837 15.5771C91.4837 23.5235 101.213 21.0046 101.213 25.4532C101.213 26.8252 99.879 28.0363 98.3506 28.0363C95.942 28.0363 95.1608 26.859 94.055 25.6159L91.0936 28.6895C92.9818 31.0116 95.3237 32.1894 98.1221 32.1894C102.319 32.1894 105.703 29.5732 105.703 25.4848C105.703 16.6557 95.9744 19.403 95.9744 15.5771ZM116.445 14.3136C112.084 14.3136 108.202 18.0069 108.202 23.4042V37.8576H112.282V30.0419C113.642 31.3827 115.05 31.9721 117.068 31.9721C121.624 31.9721 125.541 28.1464 125.541 23.1427C125.541 18.074 121.292 14.3136 116.445 14.3136ZM117.17 28.1793C114.405 28.1793 112.291 25.8552 112.291 23.1427C112.291 20.4277 114.405 18.1061 117.17 18.1061C119.512 18.1061 121.628 20.4277 121.628 23.1427C121.628 25.8552 119.512 28.1793 117.17 28.1793ZM155.575 28.4091C153.169 28.4091 152.485 27.3631 152.485 25.7601V18.6641H156.226V15.0674H152.485V10.3252L148.355 12.1887V26.6431C148.355 30.3389 150.892 32.2032 154.371 32.2032C154.892 32.2032 155.609 32.1694 155.999 32.0725L157.008 28.3449C156.553 28.3765 156.032 28.4091 155.575 28.4091Z" fill="#45535E"></path><path d="M144.815 18.8734C144.033 17.5208 142.932 16.4364 141.557 15.62C140.529 15.0186 139.463 14.6368 138.262 14.4729V10.1749C139.463 9.66232 140.208 8.52771 140.208 7.20404C140.208 5.39986 138.769 3.93784 136.975 3.93784C135.18 3.93784 133.716 5.39986 133.716 7.20404C133.716 8.52771 134.418 9.66232 135.619 10.1749V14.4748C134.658 14.6144 133.662 14.9155 132.752 15.3781C130.893 13.9593 124.798 9.30472 121.233 6.58615C121.318 6.27974 121.383 5.96391 121.383 5.6307C121.383 3.63239 119.773 2.0127 117.784 2.0127C115.795 2.0127 114.186 3.63239 114.186 5.6307C114.186 7.62876 115.797 9.24894 117.785 9.24894C118.464 9.24894 119.091 9.0495 119.633 8.7216L120.385 9.2953L130.724 16.7824C130.177 17.2868 129.668 17.8605 129.261 18.5043C128.436 19.8166 127.932 21.2605 127.932 22.8355V23.1642C127.932 24.2698 128.141 25.3136 128.497 26.2942C128.81 27.1504 129.269 27.9288 129.836 28.6327L126.405 32.0899C125.908 31.9039 125.368 31.8657 124.849 31.9799C124.331 32.0942 123.857 32.356 123.482 32.7341C123.223 32.9932 123.018 33.3014 122.878 33.6409C122.739 33.9803 122.667 34.3443 122.668 34.7116C122.669 35.4585 122.958 36.1604 123.484 36.6884C123.741 36.949 124.048 37.1557 124.386 37.2963C124.723 37.437 125.085 37.5089 125.451 37.5079C125.816 37.5089 126.179 37.4369 126.516 37.2963C126.854 37.1556 127.161 36.949 127.419 36.6884C127.678 36.4293 127.883 36.1212 128.023 35.7819C128.162 35.4426 128.234 35.0789 128.233 34.7116C128.233 34.4226 128.189 34.1406 128.105 33.8726L131.652 30.3074C132.138 30.645 132.663 30.9292 133.227 31.1743C134.341 31.6582 135.57 31.953 136.915 31.953H137.162C138.649 31.953 140.051 31.6019 141.37 30.8838C142.76 30.1249 143.847 29.0871 144.669 27.7622C145.495 26.4337 145.949 24.9659 145.949 23.351V23.2704C145.949 21.6818 145.583 20.2162 144.815 18.8734ZM140.482 26.3521C139.519 27.4273 138.412 28.0896 137.162 28.0896H136.955C136.241 28.0896 135.542 27.8912 134.858 27.5302C134.087 27.1328 133.501 26.5658 133.021 25.848C132.525 25.1434 132.256 24.3741 132.256 23.5585V23.3107C132.256 22.5088 132.409 21.7485 132.795 21.0304C133.207 20.2454 133.764 19.635 134.505 19.1497C135.233 18.6677 136.01 18.4313 136.875 18.4313H136.955C137.74 18.4313 138.483 18.5868 139.184 18.9473C139.898 19.3317 140.482 19.8569 140.934 20.5477C141.373 21.2388 141.635 21.9841 141.719 22.7962C141.732 22.965 141.739 23.1378 141.739 23.303C141.739 24.405 141.32 25.4256 140.482 26.3521Z" fill="#F8761F"></path></svg>