<svg xmlns="http://www.w3.org/2000/svg" width="192" height="40" viewBox="0 0 192 40" fill="none"><g clip-path="url(#clip0_1_2242)"><path d="M99.4589 10.0506C99.4589 11.4922 98.2992 12.653 96.8599 12.653C95.4206 12.653 94.2617 11.4922 94.2617 10.0506C94.2617 8.60903 95.3811 7.44825 96.8599 7.44825C98.3399 7.48825 99.4589 8.64943 99.4589 10.0506ZM88.7451 15.2961V15.9369C88.7451 15.9369 87.5063 14.3345 84.8678 14.3345C80.5108 14.3345 77.1123 17.6581 77.1123 22.2624C77.1123 26.8271 80.4709 30.1902 84.8678 30.1902C87.5462 30.1902 88.7451 28.5486 88.7451 28.5486V29.229C88.7451 29.5494 88.9855 29.789 89.3049 29.789H92.5425V14.7337H89.3049C88.9855 14.7349 88.7451 15.0157 88.7451 15.2961ZM88.7451 24.9451C88.146 25.8263 86.9464 26.5871 85.5075 26.5871C82.9493 26.5871 80.99 24.9855 80.99 22.2624C80.99 19.5396 82.9493 17.938 85.5075 17.938C86.9068 17.938 88.186 18.7388 88.7451 19.5796V24.9451ZM94.9414 14.7349H98.7788V29.7902H94.9414V14.7349ZM152.266 14.3341C149.628 14.3341 148.388 15.9365 148.388 15.9365V7.48825H144.551V29.7902H147.789C148.109 29.7902 148.348 29.5098 148.348 29.2294V28.549C148.348 28.549 149.588 30.1906 152.226 30.1906C156.583 30.1906 159.981 26.8283 159.981 22.2636C159.981 17.6988 156.583 14.3341 152.266 14.3341ZM151.627 26.5467C150.147 26.5467 148.988 25.7867 148.388 24.9051V19.5396C148.988 18.7388 150.267 17.898 151.627 17.898C154.185 17.898 156.144 19.4996 156.144 22.2224C156.144 24.9451 154.185 26.5467 151.627 26.5467ZM142.553 20.8616V29.8302H138.714V21.3016C138.714 18.8196 137.915 17.8181 135.758 17.8181C134.599 17.8181 133.399 18.4188 132.638 19.3V29.7906H128.802V14.7353H131.839C132.159 14.7353 132.399 15.0157 132.399 15.2961V15.9369C133.518 14.7753 134.997 14.3345 136.476 14.3345C138.155 14.3345 139.554 14.8157 140.674 15.7765C142.032 16.8977 142.553 18.3388 142.553 20.8616ZM119.486 14.3341C116.848 14.3341 115.609 15.9365 115.609 15.9365V7.48825H111.771V29.7902H115.009C115.329 29.7902 115.569 29.5098 115.569 29.2294V28.549C115.569 28.549 116.808 30.1906 119.446 30.1906C123.804 30.1906 127.201 26.8283 127.201 22.2636C127.241 17.6984 123.844 14.3341 119.486 14.3341ZM118.846 26.5467C117.367 26.5467 116.209 25.7867 115.609 24.9051V19.5396C116.209 18.7388 117.488 17.898 118.846 17.898C121.405 17.898 123.364 19.4996 123.364 22.2224C123.364 24.9451 121.405 26.5467 118.846 26.5467ZM108.453 14.3341C109.612 14.3341 110.212 14.5349 110.212 14.5349V18.098C110.212 18.098 107.014 17.0169 105.015 19.2996V29.8298H101.177V14.7349H104.416C104.736 14.7349 104.975 15.0153 104.975 15.2957V15.9365C105.695 15.0953 107.254 14.3341 108.453 14.3341ZM68.5981 28.4286C68.3985 27.9483 68.1984 27.4279 67.9987 26.9871C67.6784 26.2667 67.3586 25.5855 67.0794 24.9451L67.0395 24.9051C64.2808 18.8988 61.3231 12.8134 58.2046 6.80787L58.0848 6.56707C57.7568 5.94407 57.4372 5.3167 57.126 4.68511C56.7258 3.96393 56.3265 3.20394 55.6867 2.48275C54.4076 0.881183 52.5686 0 50.6101 0C48.611 0 46.8123 0.881187 45.4936 2.40236C44.8938 3.12274 44.4537 3.88353 44.0544 4.60472C43.7424 5.23591 43.4227 5.86327 43.0955 6.48667L42.9753 6.72747C39.8971 12.7329 36.8992 18.8188 34.1409 24.8247L34.1005 24.9043C33.821 25.5459 33.5007 26.2263 33.1808 26.9463C32.9811 27.3871 32.7815 27.8674 32.5818 28.3878C32.0618 29.869 31.9017 31.2706 32.1022 32.7126C32.5418 35.7157 34.5402 38.2372 37.2989 39.3592C38.3384 39.8 39.4179 40 40.5369 40C40.8568 40 41.2561 39.96 41.5764 39.9196C42.8959 39.7596 44.2548 39.3196 45.5743 38.5588C47.2132 37.6376 48.7723 36.3169 50.5311 34.3949C52.2898 36.3169 53.8888 37.6376 55.4878 38.5588C56.8077 39.3196 58.1663 39.7596 59.4853 39.9196C59.8052 39.9604 60.2054 40 60.5252 40C61.6446 40 62.7636 39.8 63.7628 39.3592C66.5615 38.2372 68.5199 35.6757 68.96 32.7126C69.2774 31.3114 69.1177 29.9106 68.5981 28.4286ZM50.5698 30.5106C48.4109 27.7878 47.0116 25.2255 46.5323 23.0639C46.3327 22.1428 46.2923 21.342 46.4125 20.6212C46.492 19.9804 46.7324 19.4196 47.0523 18.9392C47.8119 17.8588 49.091 17.1777 50.5702 17.1777C52.0498 17.1777 53.3689 17.8184 54.0885 18.9392C54.4084 19.4196 54.648 19.9808 54.7287 20.6212C54.8481 21.3424 54.8081 22.1828 54.6084 23.0639C54.1272 25.1855 52.7279 27.7483 50.5698 30.5106ZM66.5191 32.3926C66.2396 34.4745 64.8402 36.2769 62.8818 37.0777C61.9226 37.4776 60.8827 37.598 59.8439 37.4776C58.8448 37.3572 57.8448 37.0369 56.8061 36.4369C55.3668 35.6353 53.928 34.3949 52.2487 32.5525C54.8868 29.3098 56.4858 26.3463 57.0856 23.7043C57.3656 22.4628 57.4059 21.342 57.2853 20.3004C57.126 19.2996 56.7657 18.3784 56.2062 17.5777C54.9663 15.7753 52.8872 14.7349 50.5694 14.7349C48.2516 14.7349 46.1725 15.8161 44.9333 17.5777C44.3738 18.3784 44.0136 19.2996 43.8539 20.3004C43.6941 21.342 43.7337 22.5028 44.0536 23.7043C44.653 26.3463 46.2919 29.3494 48.8901 32.5926C47.2512 34.4345 45.772 35.6761 44.3327 36.4769C43.2932 37.0777 42.2944 37.3981 41.2952 37.5177C40.2162 37.6381 39.1763 37.4777 38.257 37.1177C36.2986 36.3169 34.8992 34.5145 34.6197 32.4326C34.4999 31.4318 34.5793 30.431 34.9795 29.3098C35.0989 28.909 35.2994 28.509 35.499 28.0287C35.779 27.3879 36.0981 26.7067 36.4184 26.0263L36.4587 25.9467C39.2166 19.9804 42.1746 13.8945 45.2528 7.96904L45.3726 7.72825C45.6929 7.12826 46.0128 6.48747 46.3323 5.88669C46.6522 5.2459 47.0116 4.64511 47.4517 4.12432C48.2911 3.16434 49.4101 2.64315 50.6497 2.64315C51.8893 2.64315 53.0082 3.16434 53.8477 4.12432C54.2878 4.64631 54.6472 5.2471 54.9671 5.88669C55.2873 6.48747 55.6072 7.12826 55.9263 7.72825L56.0465 7.96904C59.0778 13.9191 61.9965 19.9261 64.8011 25.9867V26.0267C65.1214 26.6683 65.4009 27.3883 65.7208 28.0298C65.9205 28.5094 66.1206 28.9094 66.2404 29.3102C66.5594 30.3502 66.6793 31.3518 66.5191 32.3926Z" fill="#FF5A5F"></path></g><defs><clipPath id="clip0_1_2242"><rect width="192" height="40" fill="white"></rect></clipPath></defs></svg>