<svg xmlns="http://www.w3.org/2000/svg" width="192" height="40" viewBox="0 0 192 40" fill="none"><g clip-path="url(#clip0_1_2203)"><path d="M171.97 6.93135C171.953 6.87481 171.936 6.81826 171.913 6.76172C158.405 6.76737 144.903 6.76172 131.401 6.76737C131.366 6.80695 131.344 6.84654 131.338 6.89743C131.338 17.2848 131.338 27.6664 131.332 38.0539C131.418 38.608 131.725 39.1112 132.136 39.4901C132.153 39.4958 132.193 39.5013 132.21 39.507C132.421 39.7274 132.723 39.835 133.009 39.9368C133.219 39.9255 133.425 40.0159 133.636 39.9933H150.4C150.559 39.9877 150.724 40.0159 150.878 39.9538C150.884 39.9313 150.89 39.8916 150.895 39.869C150.901 39.8407 150.907 39.7785 150.913 39.7446C151.272 37.7543 151.62 35.7582 152.002 33.7678L152.036 33.5134C150.485 33.5076 148.928 33.5134 147.378 33.5076C147.001 33.4964 146.614 33.5076 146.237 33.4623C145.593 33.4341 144.943 33.4567 144.299 33.3945C143.5 33.3945 142.708 33.321 141.909 33.321C141.282 33.2588 140.649 33.2814 140.016 33.2532C139.606 33.2024 139.184 33.2249 138.768 33.2079C138.089 33.1344 137.399 33.1854 136.721 33.1118C136.002 33.1176 135.284 33.0553 134.565 33.0382C134.571 33.0326 134.577 33.01 134.577 33.0043C134.816 33.01 135.05 32.9931 135.29 32.9874C135.82 32.9195 136.356 32.9648 136.886 32.8912C137.439 32.8912 137.987 32.8178 138.54 32.8178C139.03 32.7499 139.526 32.7895 140.016 32.7216C140.592 32.7216 141.157 32.6481 141.733 32.6424C142.206 32.5802 142.685 32.6142 143.158 32.552C143.711 32.5576 144.259 32.4728 144.812 32.4785C145.354 32.4162 145.906 32.4331 146.448 32.3765C146.397 32.1675 146.357 31.9582 146.311 31.7489C146.272 31.6189 146.112 31.6472 146.009 31.6302C144.772 31.4547 143.54 31.2796 142.309 31.11C142.388 31.0477 142.497 31.076 142.588 31.0647C143.546 30.9911 144.498 30.9063 145.456 30.8385C145.673 30.8273 145.884 30.7876 146.1 30.782C146.004 30.488 145.947 30.1656 145.815 29.8943C143.768 29.5833 141.721 29.3062 139.68 28.9725C140.21 28.8877 140.746 28.8482 141.277 28.7916L141.322 28.7746C143.016 28.5992 144.715 28.4013 146.408 28.2374C148.558 28.2262 150.702 28.2317 152.852 28.2374C152.92 28.2262 153.04 28.2599 153.051 28.1639C153.228 27.2479 153.399 26.3319 153.576 25.4158C153.821 24.1436 154.209 22.8883 154.807 21.7291C155.748 19.8631 157.236 18.2798 159.049 17.2281C160.743 16.2442 162.704 15.7693 164.655 15.6788C165.287 15.6222 165.926 15.6392 166.553 15.7184C166.964 15.8145 167.386 15.9276 167.711 16.2047C167.979 16.4195 168.138 16.7362 168.258 17.0528C168.521 17.8049 168.669 18.5852 168.794 19.3712C168.8 19.6879 168.857 20.0441 168.686 20.3325C168.526 20.6152 168.207 20.7509 167.905 20.8357C166.804 21.1184 165.652 20.8526 164.552 21.1184C163.645 21.3107 162.801 21.8082 162.225 22.5264C161.547 23.3632 161.188 24.4036 160.988 25.4442C160.834 26.3715 160.64 27.2988 160.486 28.2318C161.57 28.2376 162.659 28.2261 163.748 28.2376C164.181 28.2376 164.626 28.475 164.803 28.8821C165.031 29.4023 164.98 29.9905 164.905 30.5389C164.814 31.1552 164.666 31.7659 164.387 32.3313C164.153 32.8119 163.765 33.2531 163.235 33.4227C162.961 33.5301 162.665 33.5075 162.374 33.5075C161.416 33.5075 160.458 33.5188 159.5 33.5075C159.346 34.2031 159.243 34.9155 159.107 35.6223C158.856 36.9963 158.611 38.376 158.36 39.7558C158.354 39.8011 158.348 39.8971 158.348 39.948C158.799 39.9706 159.249 39.948 159.7 39.9593C163.041 39.9593 166.388 39.9535 169.735 39.9593C170.094 39.9706 170.459 39.8858 170.773 39.7105C170.961 39.6427 171.075 39.4786 171.24 39.3882C171.4 39.2977 171.446 39.1113 171.582 38.9924C171.731 38.7323 171.885 38.461 171.896 38.1555C171.913 38.1555 171.959 38.1498 171.982 38.1442C171.964 27.74 171.981 17.3357 171.97 6.93135Z" fill="url(#paint0_linear_1_2203)" stroke="#FCD109" stroke-width="0.094"></path><path d="M136.652 0.09008C137.137 -0.0625922 137.644 0.0391893 138.141 0.0052621C147.452 0.0109166 156.763 0.0052621 166.074 0.0052621C166.627 -0.017356 167.112 0.293643 167.625 0.45197C168.036 0.615951 168.463 0.746005 168.874 0.921295C168.96 0.955222 169.022 1.02873 169.085 1.09093C169.079 1.83733 169.085 2.58938 169.085 3.34143C169.091 3.53934 169.056 3.7429 169.125 3.93516C169.245 3.95212 169.307 4.04259 169.387 4.1161C169.763 4.28574 170.083 4.56281 170.425 4.78899C170.938 5.15088 171.485 5.46753 171.987 5.84073C172.01 5.98775 171.993 6.14042 171.947 6.27613C171.896 6.43446 171.93 6.60409 171.913 6.76242C158.405 6.76807 144.903 6.76242 131.401 6.76807C131.372 6.58148 131.423 6.39488 131.344 6.21959C131.332 6.07257 131.281 5.88031 131.423 5.77853C131.994 5.38272 132.598 5.02648 133.157 4.60805C133.505 4.38752 133.841 4.16134 134.177 3.93516C134.246 3.82207 134.223 3.6807 134.223 3.5563C134.223 2.7364 134.223 1.91649 134.229 1.09659C134.422 0.847787 134.759 0.819514 135.027 0.695114C135.569 0.491551 136.116 0.293643 136.652 0.09008ZM136.686 0.186207C135.957 0.463279 135.221 0.729042 134.491 1.00611C134.394 1.02308 134.343 1.10789 134.292 1.1814C134.297 1.22664 134.303 1.3058 134.303 1.35104C134.297 2.02958 134.303 2.70813 134.297 3.38667C134.303 3.5563 134.28 3.72594 134.343 3.87861C134.269 3.95212 134.189 4.02563 134.098 4.08217C133.271 4.6137 132.473 5.19046 131.646 5.71633C131.503 5.80115 131.344 5.91424 131.389 6.10084C131.361 6.20262 131.412 6.28744 131.52 6.25917C133.311 6.24786 135.095 6.27048 136.886 6.2422C139.549 6.2422 142.206 6.24786 144.869 6.2422L144.909 6.22524C145.028 6.25351 145.148 6.2422 145.273 6.2422C150.097 6.2422 154.921 6.24786 159.751 6.2422C161.267 6.24786 162.79 6.2422 164.312 6.2422C166.821 6.2422 169.336 6.26482 171.845 6.25351C171.919 6.23655 171.942 6.18566 171.913 6.09519C171.907 6.00471 171.942 5.88031 171.845 5.82377C171.445 5.63717 171.103 5.34879 170.721 5.12261C170.585 5.00952 170.408 4.94732 170.305 4.79465C169.912 4.57412 169.547 4.3027 169.159 4.05956C169.085 4.01432 169.028 3.94081 168.965 3.87861C168.999 3.75987 169.011 3.62981 169.011 3.50541C169.005 2.78729 169.011 2.06916 169.005 1.35104C169.022 1.23795 169.016 1.10789 168.914 1.03439C168.229 0.791241 167.551 0.531133 166.872 0.282334C166.661 0.180552 166.428 0.124007 166.2 0.09008H137.057C136.932 0.0957345 136.812 0.157934 136.686 0.186207Z" fill="#F8F3B5"></path><path d="M136.652 0.09008C137.137 -0.0625922 137.644 0.0391893 138.141 0.0052621C147.452 0.0109166 156.763 0.0052621 166.074 0.0052621C166.627 -0.017356 167.112 0.293643 167.625 0.45197C168.036 0.615951 168.463 0.746005 168.874 0.921295C168.96 0.955222 169.022 1.02873 169.085 1.09093C169.079 1.83733 169.085 2.58938 169.085 3.34143C169.091 3.53934 169.056 3.7429 169.125 3.93516C169.245 3.95212 169.307 4.04259 169.387 4.1161C169.763 4.28574 170.083 4.56281 170.425 4.78899C170.938 5.15088 171.485 5.46753 171.987 5.84073C172.01 5.98775 171.993 6.14042 171.947 6.27613C171.896 6.43446 171.93 6.60409 171.913 6.76242C158.405 6.76808 144.903 6.76242 131.401 6.76807C131.372 6.58148 131.423 6.39488 131.344 6.21959C131.332 6.07257 131.281 5.88031 131.423 5.77853C131.994 5.38272 132.598 5.02648 133.157 4.60805C133.505 4.38752 133.841 4.16134 134.177 3.93516C134.246 3.82207 134.223 3.6807 134.223 3.5563C134.223 2.7364 134.223 1.91649 134.229 1.09659C134.422 0.847787 134.759 0.819514 135.027 0.695114C135.569 0.491551 136.116 0.293643 136.652 0.09008M136.686 0.186207C135.957 0.463279 135.221 0.729042 134.491 1.00611C134.394 1.02308 134.343 1.10789 134.292 1.1814C134.297 1.22664 134.303 1.3058 134.303 1.35104C134.297 2.02958 134.303 2.70813 134.297 3.38667C134.303 3.5563 134.28 3.72594 134.343 3.87861C134.269 3.95212 134.189 4.02563 134.098 4.08218C133.271 4.6137 132.473 5.19046 131.646 5.71633C131.503 5.80115 131.344 5.91424 131.389 6.10084C131.361 6.20262 131.412 6.28744 131.52 6.25917C133.311 6.24786 135.095 6.27048 136.886 6.2422C139.549 6.2422 142.206 6.24786 144.869 6.2422L144.909 6.22524C145.028 6.25351 145.148 6.2422 145.273 6.2422C150.097 6.2422 154.921 6.24786 159.751 6.2422C161.267 6.24786 162.79 6.2422 164.312 6.2422C166.821 6.2422 169.336 6.26482 171.845 6.25351C171.919 6.23655 171.942 6.18566 171.913 6.09519C171.907 6.00471 171.942 5.88031 171.845 5.82377C171.445 5.63717 171.103 5.34879 170.721 5.12261C170.585 5.00952 170.408 4.94732 170.305 4.79465C169.912 4.57412 169.547 4.3027 169.159 4.05956C169.085 4.01432 169.028 3.94081 168.965 3.87861C168.999 3.75987 169.011 3.62981 169.011 3.50541C169.005 2.78729 169.011 2.06916 169.005 1.35104C169.022 1.23795 169.016 1.10789 168.914 1.03439C168.229 0.791241 167.551 0.531133 166.872 0.282334C166.661 0.180552 166.428 0.124007 166.2 0.09008H137.057C136.932 0.0957345 136.812 0.157934 136.686 0.186207V0.186207Z" stroke="#F8F3B5" stroke-width="0.094"></path><path d="M134.303 1.35059C134.804 1.5598 135.34 1.67855 135.848 1.88211C136.122 1.98955 136.207 2.28358 136.327 2.52107C136.207 2.63982 136.064 2.73594 135.922 2.82642C135.397 3.177 134.861 3.51627 134.342 3.87816C134.28 3.72549 134.303 3.55585 134.297 3.38621C134.303 2.70767 134.297 2.02913 134.303 1.35059ZM167.459 1.88211C167.967 1.6842 168.497 1.54849 169.005 1.35059C169.011 2.06871 169.005 2.78684 169.011 3.50496C169.011 3.62936 168.999 3.75941 168.965 3.87816C168.52 3.57281 168.07 3.28443 167.625 2.98474C167.408 2.82642 167.169 2.70767 166.975 2.51542C167.095 2.27793 167.186 1.98955 167.459 1.88211Z" fill="#F7B402" stroke="#F7B402" stroke-width="0.094"></path><path d="M143.005 2.1145C143.632 1.96748 144.333 2.52163 144.282 3.1719C144.287 3.81086 143.609 4.33108 142.987 4.18406C142.737 4.09924 142.497 3.96919 142.343 3.74866C142.144 3.44897 142.098 3.0475 142.258 2.71954C142.372 2.40288 142.68 2.18801 143.005 2.1145ZM159.272 2.47074C159.535 2.18236 159.951 2.01837 160.339 2.12016C160.629 2.20497 160.914 2.39157 161.04 2.6743C161.291 3.16059 161.097 3.81651 160.606 4.07097C160.173 4.30846 159.626 4.19537 159.295 3.85044C158.959 3.47159 158.936 2.84959 159.272 2.47074Z" fill="#BDA727" stroke="#BDA727" stroke-width="0.094"></path><path d="M135.923 2.82662C136.065 2.73615 136.208 2.64002 136.328 2.52128L136.368 2.56086C136.408 2.8549 136.379 3.15459 136.39 3.44862C136.373 4.33073 136.408 5.21849 136.368 6.10059C134.708 6.10059 133.049 6.08928 131.39 6.10059C131.344 5.91399 131.504 5.8009 131.646 5.71609C132.473 5.19022 133.271 4.61345 134.098 4.08193C134.19 4.02538 134.269 3.95187 134.343 3.87837C134.862 3.51648 135.398 3.1772 135.923 2.82662ZM166.919 2.71353C166.919 2.64002 166.936 2.57782 166.976 2.51562C167.169 2.70788 167.409 2.82662 167.626 2.98495C168.07 3.28464 168.521 3.57302 168.966 3.87837C169.028 3.94057 169.085 4.01407 169.159 4.05931C169.547 4.30246 169.912 4.57387 170.306 4.7944C170.408 4.94707 170.585 5.00927 170.722 5.12236C171.104 5.34854 171.446 5.63692 171.845 5.82352C171.942 5.88007 171.908 6.00447 171.914 6.09494C170.254 6.10059 168.601 6.08928 166.941 6.10059C166.913 5.87441 166.93 5.64823 166.924 5.42771C166.924 4.52298 166.913 3.61826 166.919 2.71353Z" fill="#F7E62D" stroke="#F7E62D" stroke-width="0.094"></path><path d="M171.914 6.09495C170.254 6.1006 168.601 6.08929 166.942 6.1006C166.913 5.87442 166.93 5.64824 166.924 5.42772C166.924 4.52299 166.913 3.61827 166.919 2.71354C166.919 2.64003 166.936 2.57783 166.976 2.51564C167.096 2.27815 167.187 1.98976 167.46 1.88233C167.968 1.68442 168.498 1.54871 169.006 1.3508C169.023 1.23771 169.017 1.10766 168.914 1.03415C168.23 0.791005 167.552 0.530897 166.873 0.282098C166.662 0.180316 166.428 0.123771 166.2 0.0898438H137.057C136.932 0.0954983 136.812 0.157698 136.687 0.185971C135.957 0.463042 135.221 0.728805 134.492 1.00588C134.395 1.02284 134.343 1.10766 134.292 1.18117C134.298 1.2264 134.303 1.30557 134.303 1.3508C134.805 1.56002 135.341 1.67877 135.849 1.88233C136.122 1.98976 136.208 2.2838 136.328 2.52129L136.367 2.56087C136.407 2.85491 136.379 3.1546 136.39 3.44863C136.373 4.33074 136.407 5.2185 136.367 6.1006C134.708 6.1006 133.049 6.08929 131.39 6.1006C131.361 6.20238 131.412 6.2872 131.521 6.25893C133.311 6.24762 135.096 6.27024 136.886 6.24197C139.549 6.24197 142.206 6.24762 144.869 6.24197L144.909 6.225C145.029 6.25328 145.148 6.24197 145.274 6.24197C150.098 6.24197 154.922 6.24762 159.751 6.24197C161.268 6.24762 162.79 6.24197 164.313 6.24197C166.822 6.24197 169.336 6.26459 171.845 6.25328C171.919 6.23631 171.942 6.18542 171.914 6.09495ZM142.258 2.7192C142.372 2.40254 142.68 2.18767 143.005 2.11416C143.632 1.96715 144.333 2.52129 144.282 3.17156C144.288 3.81052 143.609 4.33074 142.988 4.18372C142.737 4.0989 142.497 3.96885 142.343 3.74832C142.144 3.44863 142.098 3.04716 142.258 2.7192ZM159.272 2.4704C159.535 2.18202 159.951 2.01804 160.339 2.11982C160.63 2.20464 160.915 2.39124 161.04 2.67396C161.291 3.16025 161.097 3.81618 160.607 4.07063C160.173 4.30812 159.626 4.19503 159.295 3.8501C158.959 3.47125 158.936 2.84925 159.272 2.4704Z" fill="url(#paint1_radial_1_2203)" stroke="#FCD109" stroke-width="0.094"></path><path d="M160.726 8.57975C160.806 8.59672 160.31 8.10783 160.407 8.08521C160.498 8.09652 160.844 7.83024 161.262 8.04749C161.681 8.26474 161.577 8.77314 161.529 8.96166C161.473 9.18603 161.329 9.3292 161.215 9.44229C161.152 9.49318 161.012 9.57235 160.926 9.56669C160.977 9.28962 160.812 9.24439 160.801 8.96166L160.726 8.57975Z" fill="url(#paint2_linear_1_2203)" stroke="#FCD109" stroke-width="0.094"></path><path d="M142.497 8.8865C142.486 9.16922 142.321 9.21446 142.372 9.49153C142.286 9.49719 142.146 9.41802 142.083 9.36713C141.969 9.25404 141.825 9.11087 141.769 8.8865C141.721 8.69803 141.617 8.18963 142.036 7.97233C142.454 7.75503 142.8 8.0213 142.891 8.01005C142.988 8.03267 142.493 8.52155 142.572 8.50459L142.497 8.8865Z" fill="url(#paint3_linear_1_2203)" stroke="#FCD109" stroke-width="0.094"></path><path d="M159.979 12.2018C160.065 12.1279 160.122 12.1279 160.236 12.1279C159.552 13.5981 158.754 15.0683 157.553 16.2129C157.425 16.3266 157.289 16.4319 157.147 16.5283C157.01 16.628 156.875 16.7216 156.741 16.8168C156.61 16.9071 156.48 16.9979 156.353 17.0927C156.028 17.2679 155.743 17.5112 155.384 17.6185C154.728 17.9295 154.021 18.1387 153.308 18.2858C153.029 18.3311 152.744 18.3989 152.459 18.4045C152.105 18.5063 151.729 18.4328 151.37 18.4554C151.17 18.4893 150.993 18.3762 150.799 18.3989C150.631 18.3753 150.463 18.347 150.297 18.314C150.127 18.2797 149.959 18.2401 149.793 18.1953C147.179 17.3866 144.613 15.4076 143.865 12.731C143.832 12.5507 143.815 12.3678 143.814 12.1845C143.894 12.3428 143.977 12.5 144.063 12.6557C145.126 14.9552 147.236 16.7646 149.728 17.3102C149.93 17.4017 150.149 17.3697 150.343 17.4488C150.52 17.4488 150.691 17.4432 150.862 17.4997C151.449 17.511 152.037 17.5054 152.624 17.5054C152.704 17.511 152.778 17.4715 152.858 17.4545C153.837 17.4216 154.796 17.1568 155.689 16.7554C155.867 16.6751 156.043 16.5893 156.216 16.4988C156.368 16.4198 156.515 16.3342 156.659 16.2422C156.8 16.152 156.938 16.0558 157.071 15.9541C158.126 15.1248 159.039 14.0505 159.658 12.815C159.776 12.5927 159.884 12.3868 159.979 12.2018Z" fill="#BDA727" stroke="#BDA727" stroke-width="0.094"></path><path d="M159.049 17.2291C160.743 16.2452 162.704 15.7703 164.654 15.6798C165.287 15.6232 165.926 15.6402 166.553 15.7194C166.964 15.8155 167.386 15.9286 167.711 16.2057C167.545 16.217 167.386 16.1435 167.22 16.1208C166.753 16.0304 166.268 16.0643 165.795 16.053C164.421 16.053 163.035 16.1604 161.707 16.5336C161.011 16.7428 160.315 16.986 159.682 17.3479C158.588 17.9472 157.601 18.7389 156.803 19.6888C155.377 21.3117 154.539 23.3699 154.134 25.4678C153.94 26.593 153.718 27.7125 153.541 28.8434C153.256 28.8717 152.965 28.8548 152.68 28.8548C151.426 28.8491 150.171 28.8434 148.917 28.8323C148.649 28.8434 148.387 28.7814 148.119 28.7982C145.838 28.8095 143.557 28.7926 141.276 28.7926L141.322 28.7755C143.015 28.6001 144.715 28.4022 146.408 28.2384C148.558 28.2271 150.702 28.2326 152.851 28.2384C152.92 28.2271 153.04 28.2609 153.051 28.1648C153.228 27.2488 153.399 26.3329 153.575 25.4167C153.821 24.1446 154.208 22.8892 154.807 21.7301C155.748 19.8641 157.236 18.2808 159.049 17.2291Z" fill="#0D69B3" stroke="#0D69B3" stroke-width="0.094"></path><path d="M161.706 16.5334C163.035 16.1602 164.421 16.0527 165.795 16.0527C166.268 16.064 166.753 16.0301 167.22 16.1206C167.385 16.1432 167.545 16.2167 167.711 16.2054C167.979 16.4203 168.138 16.7369 168.258 17.0536C168.52 17.8056 168.669 18.586 168.794 19.3719C168.8 19.6886 168.857 20.0448 168.686 20.3332C168.526 20.6159 168.207 20.7516 167.905 20.8365C166.804 21.1192 165.652 20.8534 164.552 21.1192C163.645 21.3114 162.801 21.809 162.225 22.5272C161.547 23.364 161.188 24.4043 160.988 25.4449C160.834 26.3722 160.64 27.2995 160.486 28.2325C160.418 28.4418 160.378 28.668 160.338 28.8886C161.416 28.9056 162.493 28.8886 163.571 28.8998C163.981 28.8886 164.392 28.9111 164.803 28.8828C165.031 29.4031 164.979 29.9912 164.905 30.5396C164.814 31.156 164.666 31.7666 164.386 32.3321C164.152 32.8127 163.765 33.2538 163.235 33.4234C162.961 33.5309 162.664 33.5083 162.374 33.5083C161.416 33.5083 160.458 33.5195 159.5 33.5083C159.346 34.2038 159.243 34.9162 159.106 35.623C158.856 36.997 158.61 38.3767 158.359 39.7565C158.354 39.8018 158.348 39.8979 158.348 39.9488V39.9544C155.856 39.9544 153.37 39.9602 150.878 39.9544C150.884 39.9319 150.89 39.8922 150.896 39.8696C150.901 39.8413 150.907 39.7791 150.913 39.7453C150.918 39.7905 150.924 39.8754 150.93 39.9149C151.084 39.9319 151.363 40.011 151.403 39.7905C151.791 37.7096 152.15 35.6174 152.549 33.5365C152.395 33.5026 152.236 33.5026 152.076 33.5309C152.053 33.61 152.03 33.6891 152.002 33.7683L152.036 33.5139C150.485 33.5081 148.928 33.5139 147.378 33.5081C147.001 33.4969 146.614 33.5081 146.237 33.4629C145.593 33.4346 144.943 33.4573 144.299 33.395C143.5 33.395 142.708 33.3215 141.909 33.3215C141.282 33.2593 140.649 33.2819 140.016 33.2536C139.606 33.2029 139.184 33.2254 138.768 33.2085C138.089 33.1349 137.399 33.1859 136.721 33.1123C136.002 33.118 135.284 33.0557 134.565 33.0388C134.571 33.0332 134.577 33.0105 134.577 33.0049C134.816 33.0105 135.05 32.9935 135.29 32.9879C135.82 32.9201 136.356 32.9653 136.886 32.8918C137.439 32.8918 137.987 32.8182 138.54 32.8182C139.03 32.7504 139.526 32.79 140.016 32.7222C140.592 32.7222 141.157 32.6486 141.733 32.643C142.206 32.5808 142.685 32.6147 143.158 32.5525C143.711 32.5582 144.259 32.4734 144.812 32.479C145.354 32.4166 145.907 32.4337 146.448 32.3771C146.397 32.168 146.357 31.9588 146.311 31.7495C146.272 31.6194 146.112 31.6476 146.009 31.6307C144.772 31.4553 143.54 31.2801 142.309 31.1105C142.389 31.0481 142.497 31.0764 142.588 31.0653C143.546 30.9916 144.498 30.9068 145.456 30.8391C145.673 30.8277 145.884 30.7882 146.101 30.7825C146.004 30.4885 145.947 30.1662 145.815 29.8947C143.769 29.5837 141.721 29.3067 139.68 28.9731C140.21 28.8883 140.746 28.8486 141.277 28.7921C143.557 28.7921 145.838 28.8091 148.119 28.7978C148.387 28.7808 148.649 28.843 148.917 28.8318C150.172 28.843 151.426 28.8488 152.681 28.8543C152.966 28.8543 153.256 28.8713 153.542 28.843C153.718 27.7121 153.941 26.5925 154.135 25.4674C154.539 23.3694 155.378 21.3113 156.803 19.6885C157.601 18.7385 158.588 17.9468 159.683 17.3475C160.315 16.9857 161.011 16.7426 161.706 16.5334Z" fill="#107BD4" stroke="#107BD4" stroke-width="0.094"></path><path d="M160.487 28.2324C161.57 28.2382 162.659 28.2268 163.748 28.2382C164.182 28.2382 164.626 28.4756 164.803 28.8827C164.393 28.911 163.982 28.8885 163.571 28.8997C162.494 28.8885 161.416 28.9055 160.338 28.8885C160.378 28.6679 160.418 28.4417 160.487 28.2324ZM152.076 33.5308C152.236 33.5025 152.396 33.5025 152.55 33.5364C152.15 35.6173 151.791 37.7095 151.403 39.7904C151.364 40.0109 151.084 39.9318 150.93 39.9148C150.924 39.8753 150.919 39.7904 150.913 39.7451C151.272 37.7548 151.62 35.7587 152.002 33.7684C152.031 33.689 152.053 33.61 152.076 33.5308Z" fill="#0D69B3" stroke="#0D69B3" stroke-width="0.094"></path><path d="M160.985 8.73788C160.94 8.65306 160.934 8.55128 160.934 8.45515L160.888 8.46081C160.82 8.21201 160.609 7.97452 160.335 7.96321C160.13 7.94624 159.873 7.9519 159.754 8.14415C159.526 8.4495 159.634 8.83966 159.623 9.18459C159.623 9.2072 159.628 9.24679 159.628 9.2694C159.628 9.50124 159.6 9.72742 159.56 9.9536C159.526 10.0215 159.509 10.095 159.509 10.1741C159.412 10.7057 159.218 11.2315 158.956 11.7122C158.904 11.78 158.864 11.8535 158.847 11.9327C158.676 12.2267 158.471 12.4981 158.26 12.7696C158.226 12.7978 158.197 12.8318 158.169 12.8657C158.02 13.0466 157.861 13.1993 157.695 13.3576C157.655 13.3802 157.627 13.4085 157.593 13.4311C157.399 13.6177 157.182 13.793 156.948 13.9344C156.92 13.9514 156.891 13.974 156.857 13.9966C155.397 14.9522 153.624 15.348 151.896 15.365C150.431 15.4102 148.954 15.0992 147.631 14.4716C147.609 14.4603 147.551 14.4376 147.529 14.4263C147.306 14.3076 147.078 14.2058 146.873 14.0588C146.827 14.0362 146.782 14.0079 146.73 13.9853C146.519 13.8609 146.32 13.7252 146.132 13.5668C146.069 13.5103 146 13.4651 145.932 13.4142C145.727 13.2502 145.516 13.0749 145.339 12.877C145.294 12.8261 145.248 12.7809 145.202 12.7356C144.581 12.0967 144.096 11.3163 143.84 10.4682C143.594 9.79527 143.629 9.06019 143.6 8.35337C143.395 8.04237 142.962 7.86708 142.619 8.05934C142.477 8.16112 142.46 8.34772 142.351 8.47777C142.175 10.3438 142.979 12.2041 144.262 13.5499C144.262 13.5951 144.284 13.6234 144.324 13.6404C144.552 13.8496 144.775 14.0644 145.003 14.268C145.043 14.3076 145.088 14.3472 145.14 14.3811C145.368 14.5677 145.613 14.7373 145.852 14.9126C145.898 14.9465 145.944 14.9748 145.995 15.0031C146.309 15.184 146.605 15.3989 146.942 15.5233C146.964 15.5403 147.004 15.5685 147.027 15.5799C148.11 16.0944 149.279 16.445 150.477 16.5581C150.608 16.5581 150.739 16.5694 150.87 16.5977C151.44 16.6316 152.011 16.6146 152.581 16.6033C154.343 16.4507 156.162 16.0266 157.633 14.9974L157.65 15.0201C157.695 14.9805 157.735 14.9465 157.781 14.9126C158.015 14.743 158.243 14.562 158.471 14.3754C158.522 14.3359 158.579 14.2906 158.631 14.2397C158.881 13.9683 159.172 13.7195 159.383 13.4085L159.418 13.4255C159.435 13.3972 159.463 13.3407 159.48 13.3124C159.674 13.0523 159.851 12.7809 160.022 12.5094C160.033 12.4925 160.062 12.4642 160.073 12.4472L160.051 12.4246C160.068 12.402 160.108 12.3568 160.125 12.3342C160.438 11.7008 160.718 11.0393 160.815 10.3381C160.855 10.3211 160.877 10.2872 160.877 10.2476C160.883 10.0215 160.963 9.80658 160.94 9.5804C160.991 9.30333 160.997 9.0206 160.985 8.73788Z" fill="white" stroke="white" stroke-width="0.094"></path><path d="M141.913 8.54708C142.375 8.69087 143.437 8.32909 143.738 8.66017M142.179 9.94182C142.622 9.78898 143.572 9.42709 143.966 9.64027M142.635 11.3366C142.849 11.4054 143.272 11.0324 143.481 10.9231C143.793 10.7604 144.113 10.6357 144.46 10.5827M143.32 12.8068C143.54 12.4956 143.805 12.2371 144.124 12.016C144.44 11.797 145.305 11.2117 145.676 11.412M143.966 13.8623C144.216 13.6647 144.319 13.3151 144.582 13.1075C144.9 12.8563 145.388 12.8113 145.714 12.656M145.04 14.6445C145.115 14.0978 145.674 13.4381 146.209 13.4853M145.866 15.4079C146.149 15.3798 146.387 14.7533 146.578 14.541C146.864 14.2229 147.161 14.1251 147.539 14.0131M147.501 16.0864C147.483 15.6908 147.895 14.5566 148.375 14.6162M148.717 16.4634C148.697 15.9959 148.941 14.5897 149.516 14.5409M149.972 17.2173C149.863 16.5636 149.87 15.6178 150.39 15.144M151.53 17.3681C151.472 16.8232 150.926 15.7215 151.53 15.2948M153.203 16.9911C152.942 16.6914 152.791 15.509 152.899 15.1817M154.799 16.7273C154.598 16.3652 154.349 16.0252 154.273 15.6049C154.228 15.3537 154.307 14.9959 154.267 14.8047M156.13 16.1618C155.694 15.8789 155.573 14.8392 155.712 14.3901M157.422 15.5963C157.112 14.9364 156.781 14.4247 156.776 13.6738M158.677 14.3901C158.195 14.0685 157.58 13.4839 157.65 12.8445M160.007 13.3723C159.275 13.2113 158.396 12.5615 157.955 11.9775M160.615 12.1283C160.087 12.0159 158.341 11.3405 158.449 10.6581M161.186 10.8089C160.45 10.5413 159.379 10.3007 158.791 9.79107M161.566 9.60255C161.102 9.64191 160.438 9.41929 159.967 9.33865C159.443 9.24914 158.958 9.07425 158.449 8.96167M161.11 8.43399C160.215 8.48708 159.376 8.1836 158.563 7.90625" stroke="#D1D1D1" stroke-width="2"></path><path d="M46.6741 11.153C47.5005 11.0294 48.4514 10.9521 49.1529 11.4622C49.5894 11.7868 49.7453 12.3742 49.7141 12.9C49.7453 13.7657 49.34 14.6933 48.5606 15.1417C47.8746 15.5128 47.0484 15.5435 46.2844 15.4663C45.77 15.4046 45.2555 15.1264 44.9905 14.6625C44.398 13.3175 45.1307 11.4159 46.6741 11.153ZM21.9487 12.127C21.9954 11.6632 22.4164 11.2458 22.8996 11.2613C26.501 11.2613 30.0866 11.2767 33.6723 11.2613C34.062 11.2304 34.483 11.4004 34.67 11.7405C34.9349 12.2043 34.7011 12.7145 34.67 13.1938C34.5609 13.843 34.592 14.7089 33.8282 14.9562C31.2091 15.0335 28.59 14.9562 25.9708 14.9871C25.7214 16.6258 25.4876 18.2491 25.2381 19.8724C25.2381 19.9342 25.2537 20.0735 25.2537 20.1351C27.1712 20.1198 29.0888 20.1351 31.0063 20.1198C31.5364 20.0888 32.0975 20.5373 32.0508 21.0937C32.0041 21.6658 31.8793 22.2223 31.8014 22.7944C31.7389 23.1808 31.4272 23.5364 31.0218 23.6137C28.886 23.6601 26.719 23.5674 24.5834 23.6601C24.2403 25.9946 23.8349 28.3289 23.4763 30.6635C23.4297 31.1274 23.0554 31.5293 22.5877 31.5446C21.6992 31.5602 20.8105 31.5602 19.9219 31.5446C19.3451 31.5602 18.8774 30.9261 19.0332 30.3851C19.9845 24.2941 20.9666 18.2184 21.9487 12.127ZM37.7878 11.2921C38.5986 11.2303 39.4248 11.2767 40.2355 11.2613C40.7345 11.2304 41.2333 11.6168 41.28 12.127C41.28 12.5289 41.1708 12.9309 41.1241 13.3329C40.4693 17.4762 39.799 21.6196 39.1441 25.7629C39.0506 26.4276 38.8791 27.1387 39.0818 27.819C39.3157 28.4992 40.3601 28.2054 40.6096 28.9166C40.7655 29.4886 40.5939 30.0915 40.5471 30.6791C40.5004 31.452 39.6118 31.622 39.0039 31.7923C37.6788 32.0396 36.0729 31.8541 35.1219 30.7717C34.436 29.9835 34.3892 28.8702 34.5296 27.8809C35.3558 22.6245 36.1821 17.3681 37.024 12.0961C37.0708 11.7096 37.3826 11.354 37.7878 11.2921ZM68.7336 12.127C68.7802 11.6632 69.2013 11.2613 69.669 11.2613H72.0386C72.631 11.2458 73.1144 11.8797 72.974 12.4362C72.4284 15.8683 71.8672 19.3005 71.3216 22.7325C72.1478 22.6089 73.0833 22.4543 73.6601 21.7895C74.6265 20.7072 75.4218 19.4552 76.0141 18.1411C76.2167 17.6308 76.3259 16.8888 76.9963 16.796C77.8849 16.765 78.789 16.7805 79.6777 16.796C80.2857 16.7805 80.7378 17.4607 80.5351 18.0172C80.3013 18.8368 79.9116 19.5942 79.5063 20.3209C78.602 21.7742 77.6044 23.2119 76.2947 24.3559C76.8715 26.0719 77.6043 27.7417 78.2435 29.4269C78.4305 29.9834 78.8828 30.6326 78.4617 31.1739C77.9783 31.8232 77.0742 31.4984 76.4038 31.5757C75.7023 31.4984 74.689 31.854 74.2992 31.0656C73.5664 29.3803 72.9585 27.649 72.2101 25.9638C71.7736 25.9791 71.3216 25.9947 70.885 25.9483C70.8539 26.0102 70.7915 26.1337 70.7603 26.1957C70.5264 27.7417 70.277 29.2877 70.0275 30.8336C69.9339 31.2047 69.6377 31.5294 69.2325 31.5603C68.4063 31.5913 67.5644 31.5757 66.7225 31.5757C66.3639 31.5757 66.0366 31.3438 65.8806 31.0346C65.7247 30.7253 65.8182 30.3699 65.8652 30.0298C66.8316 24.0621 67.7826 18.0945 68.7336 12.127ZM112.058 13.8122C112.167 13.3792 112.588 13.0855 113.024 13.1009C113.648 13.1165 114.287 13.0855 114.926 13.1165C115.441 13.1318 115.846 13.642 115.783 14.1368C115.69 15.018 115.472 15.8993 115.409 16.7804C116.017 16.7804 116.641 16.765 117.249 16.7804C117.795 16.7804 118.247 17.337 118.153 17.8625C118.075 18.342 117.966 18.8058 117.888 19.2849C117.81 19.687 117.467 20.0116 117.078 20.0734C116.329 20.1198 115.597 20.0425 114.864 20.1198C114.552 22.1913 114.209 24.2629 113.882 26.3348C113.835 26.814 113.804 27.355 114.084 27.7725C114.505 28.2827 115.238 28.097 115.83 28.159C116.298 28.2981 116.594 28.8084 116.516 29.2723C116.438 29.7978 116.423 30.3235 116.298 30.8336C116.111 31.4055 115.441 31.5138 114.926 31.6529C113.507 32.0241 111.87 32.0241 110.608 31.2046C109.439 30.4161 109.251 28.8856 109.376 27.5869C109.703 25.0823 110.218 22.5933 110.499 20.0733C110.062 20.0887 109.532 20.1506 109.205 19.7641C108.831 19.3777 109.018 18.8056 109.08 18.3262C109.174 17.816 109.158 17.1513 109.719 16.873C110.171 16.7028 110.686 16.8267 111.169 16.7648C111.465 15.7755 111.746 14.7861 112.058 13.8122ZM103.249 18.8211C104.232 17.8471 105.416 17.0432 106.773 16.6414C107.365 16.3785 108.129 16.8733 108.113 17.5226C108.004 18.3729 107.802 19.2076 107.661 20.0425C107.599 20.4599 107.24 20.8155 106.819 20.8619C105.292 21.1246 103.966 22.0366 102.906 23.119C102.641 23.4438 102.252 23.7529 102.205 24.2012C101.878 26.3656 101.535 28.53 101.192 30.6944C101.145 31.1581 100.739 31.6066 100.256 31.5757H97.8864C97.3408 31.6066 96.8576 31.0656 96.9199 30.5244C97.6058 26.2419 98.2919 21.9751 98.9622 17.6925C98.9934 17.2597 99.3052 16.8423 99.7572 16.7959C100.334 16.7649 100.911 16.7804 101.503 16.7804C101.971 16.7804 102.407 17.1978 102.407 17.6771C102.407 18.3419 102.345 19.022 102.33 19.7023C102.704 19.4706 102.938 19.0995 103.249 18.8211ZM44.9748 16.8577C45.8166 16.6877 46.6896 16.8269 47.5315 16.7804C48.0148 16.7187 48.5293 17.0278 48.6071 17.5071C48.6696 17.9399 48.5447 18.3574 48.498 18.7749C47.8589 22.7482 47.2196 26.7214 46.596 30.6946C46.5493 31.1431 46.1753 31.5913 45.6919 31.5758C44.8501 31.5758 44.0082 31.5913 43.1508 31.5604C42.6207 31.4985 42.2309 30.8957 42.3713 30.3854C43.0417 26.2577 43.6809 22.1452 44.3513 18.0173C44.3825 17.5689 44.5072 17.0432 44.9748 16.8577ZM95.4232 17.0588C93.1003 16.6258 90.7308 16.3166 88.3766 16.5485C86.272 16.8114 84.1518 17.7545 82.858 19.4706C81.0651 21.7277 80.4571 24.7579 80.8623 27.5717C81.0807 28.9167 81.673 30.2772 82.78 31.112C83.8089 31.9005 85.1964 32.0086 86.4436 31.8077C88.1895 31.4675 89.6705 30.3546 90.8866 29.1177C90.9489 29.6433 90.8242 30.169 90.8555 30.6792C90.8866 31.1583 91.3231 31.6066 91.8064 31.5757H93.3967C93.8643 31.5757 94.2541 31.143 94.2853 30.6945C94.9556 26.5048 95.626 22.3306 96.2808 18.1564C96.3742 17.6307 95.9534 17.1206 95.4232 17.0588ZM91.0427 24.3405C90.419 25.5 89.5459 26.5513 88.5637 27.4478C88.0026 27.9116 87.2853 28.391 86.5216 28.2364C85.7732 28.0818 85.4146 27.3089 85.2432 26.644C84.8535 24.9125 85.2121 23.0263 86.1941 21.5268C86.6306 20.8309 87.3322 20.3054 88.1429 20.0889C89.2809 19.8106 90.4814 19.9497 91.5883 20.2589L91.6506 20.3209C91.5103 21.6658 91.2452 22.9954 91.0427 24.3405ZM64.8206 22.0215C64.8049 20.4754 64.3841 18.8522 63.2928 17.6926C62.5446 16.8733 61.422 16.4558 60.3308 16.4712C58.5223 16.4095 56.8231 17.2907 55.498 18.4656C55.2016 18.6976 54.9991 19.0377 54.6718 19.2232C54.6718 18.7129 54.7185 18.2028 54.7028 17.6772C54.7185 17.1978 54.2663 16.7804 53.7986 16.7804H52.2084C51.7097 16.7804 51.3042 17.2134 51.273 17.6926C50.2909 23.8766 49.2933 30.0606 48.311 36.2447C48.1708 36.8167 48.6698 37.4042 49.2621 37.3887C50.1351 37.3733 51.0238 37.4506 51.8812 37.3268C52.5672 37.1412 52.5515 36.3528 52.6607 35.7808C52.91 34.4203 53.0817 33.0598 53.2375 31.6838C56.3087 32.2713 59.8787 31.8695 62.1704 29.5658C64.0411 27.5407 64.9141 24.7424 64.8206 22.0215ZM60.4555 23.5829C60.362 25.0052 59.8475 26.443 58.8498 27.4787C57.5559 28.7002 55.5914 28.53 54.0013 28.1128C53.9703 28.0663 53.9234 27.9735 53.9078 27.9272C54.1572 26.5822 54.282 25.2217 54.5938 23.8921C55.4668 22.4699 56.5268 21.0319 58.0391 20.2436C58.6003 19.9808 59.3642 20.0426 59.7695 20.5528C60.4555 21.4031 60.5179 22.5471 60.4555 23.5829Z" fill="#107BD4" stroke="#107BD4" stroke-width="0.101"></path></g><defs><linearGradient id="paint0_linear_1_2203" x1="151.657" y1="6.76166" x2="151.657" y2="39.997" gradientUnits="userSpaceOnUse"><stop stop-color="#F7E830"></stop><stop offset="1" stop-color="#FDCB06"></stop></linearGradient><radialGradient id="paint1_radial_1_2203" cx="0" cy="0" r="1" gradientUnits="userSpaceOnUse" gradientTransform="translate(151.483 21.9207) scale(27.2599 27.0332)"><stop offset="0.596" stop-color="#F29405"></stop><stop offset="0.736" stop-color="#F7D01E"></stop><stop offset="1" stop-color="#FDCB06"></stop></radialGradient><linearGradient id="paint2_linear_1_2203" x1="160.983" y1="7.96149" x2="160.992" y2="9.53531" gradientUnits="userSpaceOnUse"><stop stop-color="#FADA1C"></stop><stop offset="1" stop-color="#FDCB06"></stop></linearGradient><linearGradient id="paint3_linear_1_2203" x1="142.315" y1="7.88633" x2="142.306" y2="9.46015" gradientUnits="userSpaceOnUse"><stop stop-color="#FADA1C"></stop><stop offset="1" stop-color="#FDCB06"></stop></linearGradient><clipPath id="clip0_1_2203"><rect width="192" height="40" fill="white"></rect></clipPath></defs></svg>