<svg xmlns="http://www.w3.org/2000/svg" width="192" height="34" viewBox="0 0 192 34" fill="none"><path d="M53 0H138V34H53V0Z" fill="#F0141E"></path><path d="M124.931 7.92568V2.71892H110.361L107.962 20.1069L105.592 2.71892H100.338L100.925 7.36196C100.319 6.17196 98.1692 2.71892 93.4347 2.71892C93.4032 2.71688 88.174 2.71892 88.174 2.71892L88.1523 28.0632L84.3233 2.71892L77.4411 2.71688L73.4794 28.9763L73.4816 2.71892H66.8938L64.5197 17.4695L62.207 2.71892H55.6182V31.2674H60.8071V17.5069L63.1677 31.2674H65.9258L68.2531 17.5069V31.2674H78.2555L78.8604 26.8763H82.8874L83.4922 31.2674L93.3133 31.2737H93.3204V31.2674H93.3327V22.0017L94.5352 21.8276L97.0276 31.2737H102.108L102.106 31.2674H102.12L98.8497 20.1987C100.506 18.9782 102.378 15.8842 101.879 12.923V12.922C101.886 12.9604 104.967 31.2864 104.967 31.2864L111.008 31.2677L115.136 5.39319V31.2677H124.93V26.1339H120.282V19.5877H124.93V14.3755H120.282V7.92568H124.931ZM79.4715 22.3504L80.8973 10.144L82.3746 22.3504H79.4715ZM94.5519 16.714C94.1534 16.9049 93.7386 17.0005 93.3327 17.0015V7.81977C93.339 7.81977 93.3485 7.81875 93.3587 7.81875C93.7633 7.81569 96.7932 7.94013 96.7932 12.3593C96.7932 14.6709 95.763 16.1289 94.5519 16.714ZM135.384 26.1291V31.2611H125.827V2.71484H130.973V26.1291H135.384Z" fill="white"></path></svg>