<svg xmlns="http://www.w3.org/2000/svg" width="192" height="40" viewBox="0 0 192 40" fill="none"><path d="M133.115 32.1695H59.4004L65.2799 37.9993L133.115 32.1695ZM144.947 28.453V16.7935C144.947 14.6073 146.491 12.7855 148.696 12.7855C150.9 12.7855 152.444 14.6073 152.444 16.7935V28.453H157V16.7935C157 11.9839 153.693 8.1217 148.843 8.1217C146.638 8.1217 144.947 9.36053 144.947 9.36053V8.55893H140.391V28.3802H144.947V28.453ZM129.881 8.04883C124.59 8.04883 120.841 12.6398 120.841 18.4695C120.841 24.5908 125.545 28.8903 130.322 28.8903C132.747 28.8903 135.761 28.0887 138.333 24.4451L134.291 22.1132C131.204 26.6312 125.986 24.3722 125.398 19.7812H138.48C139.656 12.7855 135.026 8.04883 129.881 8.04883ZM133.85 15.919H125.692C126.647 11.3281 132.968 11.0366 133.85 15.919Z" fill="#BF0000"></path><path d="M119.371 23.7163C118.93 24.0078 118.416 24.2264 117.828 24.2264C117.093 24.2264 115.696 23.6435 115.696 21.8217V13.2956H119.592V8.55894H115.696V3.60364H111.14V8.55894H108.715V13.2956H111.14V21.8217C111.14 26.2669 114.521 28.8903 117.901 28.8903C119.151 28.8903 120.915 28.453 122.311 27.6514L119.371 23.7163ZM102.615 8.55894V20.2185C102.615 22.4046 101.071 24.2264 98.8663 24.2264C96.6615 24.2264 95.1182 22.4046 95.1182 20.2185V8.55894H90.5615V20.2185C90.5615 25.028 93.8688 28.8903 98.7194 28.8903C100.924 28.8903 102.615 27.6514 102.615 27.6514V28.3802H107.171V8.55894H102.615Z" fill="#BF0000"></path><path d="M82.0365 17.8871L89.8268 8.55947H83.5064L77.9943 15.4823V2.00098H73.3642V28.4536H77.9943V20.2919L84.7558 28.4536H91.0762L82.0365 17.8871ZM66.2353 8.55947V9.43393C64.8389 8.55947 63.663 8.04936 61.9726 8.04936C56.8281 8.04936 52.8594 12.7132 52.8594 18.4701C52.8594 24.227 56.7546 28.8908 61.9726 28.8908C63.663 28.8908 64.9124 28.3807 66.2353 27.5062V28.3807H70.7919V8.55947H66.2353ZM61.8991 24.1541C59.3268 24.1541 57.4895 21.6765 57.4895 18.543C57.4895 15.4094 59.3268 12.9318 61.8991 12.9318C64.4714 12.9318 66.2353 15.4094 66.2353 18.543C66.3088 21.6765 64.4714 24.1541 61.8991 24.1541Z" fill="#BF0000"></path><path d="M39.7771 28.453V20.7286H43.0843L48.8904 28.3802H54.8434L47.788 19.1254C49.9928 17.5951 51.3892 15.0446 51.3892 12.1297C51.3892 7.39299 47.494 3.60364 42.7904 3.60364H35V28.3802H39.7771V28.453ZM39.7771 8.34033H42.8639C44.9952 8.34033 46.759 10.0893 46.759 12.2025C46.759 14.3158 44.9952 16.0648 42.8639 16.0648H39.7771V8.34033Z" fill="#BF0000"></path></svg>