<svg xmlns="http://www.w3.org/2000/svg" width="192" height="34" viewBox="0 0 192 34" fill="none"><g clip-path="url(#clip0_1_2188)"><path d="M18.4132 0.000915527L22.36 11.9214H22.4727L18.5259 0.000915527H18.4132ZM35.6383 13.5162L35.5256 13.6004L25.3207 20.988L29.2107 32.9649L29.2387 33.049L29.3235 32.9935L25.4624 21.0157L35.6654 13.6013L35.6383 13.5162ZM17.5688 26.6124L7.33325 33.9445L7.41986 34L17.6247 26.6393L17.5688 26.6124Z" fill="#000E3C"></path><path d="M75.8566 17.9435C75.8566 19.0941 75.3559 19.4371 73.4768 20.0881C71.9729 20.6496 70.8155 20.8976 70.47 20.8976C69.843 20.8976 69.5624 20.4311 69.5624 19.4667C69.5624 17.1671 70.2192 14.3688 72.663 14.3688C74.9184 14.3688 75.8566 16.7937 75.8566 17.9435ZM51.4252 27.9861C51.4252 27.7981 51.3954 27.6763 51.3025 27.5823C51.0508 27.3315 50.1117 27.1784 49.6426 26.711C49.2998 26.368 49.0779 25.7788 49.0779 24.4114V19.155C49.0779 18.7512 49.1726 18.5031 49.5795 18.5031H54.9678C55.3747 18.5031 55.4685 18.7503 55.4685 19.1559V24.4114C55.4685 25.7788 55.2502 26.3689 54.9047 26.711C54.4356 27.1766 53.4956 27.3315 53.2448 27.5823C53.1501 27.6763 53.1194 27.799 53.1194 27.9852C53.1194 28.7929 53.2457 29.6042 53.3693 29.726C53.4956 29.8514 53.6832 29.8818 54.091 29.8818H62.8912C63.2981 29.8818 63.4866 29.8523 63.6111 29.726C63.7374 29.6033 63.8637 28.7929 63.8637 27.9861C63.8637 27.7981 63.8294 27.6763 63.7374 27.5823C63.5173 27.3656 62.5466 27.1784 62.0757 26.711C61.7329 26.368 61.5443 25.7161 61.5443 24.6586V10.1395C61.5443 9.39354 61.7338 8.89477 62.0134 8.61717C62.515 8.11929 63.5173 8.02527 63.7365 7.80677C63.8303 7.71365 63.8628 7.52828 63.8628 7.37247C63.8628 6.81281 63.7365 5.97375 63.6111 5.84928C63.4848 5.72392 63.3612 5.69258 62.8912 5.69258H54.4022C54.0594 5.69258 53.9331 5.72481 53.8393 5.81794C53.7455 5.91197 53.6507 6.56476 53.6507 7.40292C53.6507 7.55784 53.6823 7.74499 53.7455 7.80588C53.9006 7.96348 54.6855 8.21242 54.9994 8.52225C55.3422 8.86522 55.4685 9.23863 55.4685 10.2953V14.4297C55.4685 14.5855 55.3107 14.8022 55.0923 14.8022H49.4541C49.2339 14.8022 49.0779 14.5855 49.0779 14.4297V10.2953C49.0779 9.23863 49.2042 8.86522 49.5479 8.52225C49.8618 8.21153 50.644 7.96348 50.8018 7.80588C50.865 7.74588 50.8957 7.55873 50.8957 7.40292C50.8957 6.56387 50.8009 5.91107 50.7071 5.81794C50.6133 5.72481 50.487 5.69258 50.1433 5.69258H41.6552C41.1861 5.69258 41.0598 5.72481 40.9335 5.84928C40.8099 5.97375 40.6836 6.81281 40.6836 7.37158C40.6836 7.52828 40.7152 7.71365 40.8099 7.80677C41.0291 8.02527 42.0314 8.11929 42.533 8.61717C42.8135 8.89477 43.0021 9.39354 43.0021 10.1395V24.6586C43.0021 25.7152 42.8135 26.368 42.4698 26.711C42.0007 27.1766 41.0291 27.3647 40.8099 27.5823C40.7152 27.6763 40.6836 27.799 40.6836 27.9852C40.6836 28.7929 40.8099 29.6042 40.9335 29.726C41.0598 29.8514 41.1861 29.8818 41.6552 29.8818H50.4563C50.8632 29.8818 51.0517 29.8523 51.178 29.726C51.3025 29.6033 51.4252 28.7929 51.4252 27.9861ZM80.5251 27.55C81.4326 26.6492 81.6536 26.1191 81.6536 25.6839C81.6536 25.2173 81.5273 24.8439 81.152 24.4714C80.7434 24.0676 80.4006 24.0049 80.0857 24.0049C79.6473 24.0049 79.4587 24.1294 79.1782 24.4105C77.7997 25.7779 76.0451 26.5229 73.9152 26.5229C71.7546 26.5229 70.4068 25.0938 70.4068 24.1911C70.4068 23.944 70.6269 23.7246 71.189 23.5697C77.2043 21.7044 79.7095 20.4615 80.6487 19.5275C81.1809 19.0306 81.4001 18.4396 81.4001 17.9112C81.4001 15.5472 77.9567 11.3519 72.6621 11.3519C70.47 11.3519 68.2462 12.2205 66.5863 13.8682C64.9264 15.5176 63.8926 17.8476 63.8926 21.0203C63.8926 24.0667 64.8642 26.1818 66.5556 27.8608C68.2471 29.5398 70.6901 30.3788 73.3532 30.3788C76.0776 30.3788 78.6468 29.4162 80.5251 27.5491M90.3294 12.4086C90.3294 12.0056 90.1092 11.8489 89.7655 11.8489H83.7195C83.3749 11.8489 83.2504 11.8489 83.1548 11.9743C83.0303 12.0987 82.9067 12.9378 82.9067 13.4984C82.9067 13.6533 82.9698 13.776 83.0303 13.87C83.2504 14.1494 83.7195 14.2434 84.1272 14.5855C84.4087 14.8648 84.535 15.4568 84.535 16.3576V24.6586C84.535 25.717 84.4087 26.4003 84.0948 26.7119C83.6257 27.1775 82.8417 27.396 82.6243 27.6127C82.5621 27.6772 82.5296 27.7999 82.5296 28.0184C82.5296 28.8261 82.6559 29.6033 82.7795 29.7269C82.8742 29.82 83.0294 29.8827 83.3749 29.8827H91.4254C91.7692 29.8827 91.9261 29.82 92.0208 29.7269C92.1453 29.6042 92.2392 28.8261 92.2392 28.0184C92.2392 27.7999 92.2085 27.6772 92.1453 27.6127C91.9261 27.396 91.2053 27.1793 90.7362 26.7119C90.4241 26.4003 90.3303 25.717 90.3303 24.6595V12.4086H90.3294ZM86.9771 4.57324C85.2549 4.57324 83.8449 5.91197 83.8449 7.59097C83.8449 9.30041 85.2549 10.6382 86.9771 10.6382C88.7317 10.6382 90.1417 9.30041 90.1417 7.59097C90.1417 5.91107 88.7326 4.57324 86.9771 4.57324ZM111.253 16.6683C111.253 13.185 109.436 11.4146 106.586 11.4146C105.238 11.4146 103.798 11.8489 102.356 12.7202C101.855 13.0318 101.699 13.1232 101.573 13.1232C101.072 13.1232 101.416 11.848 100.509 11.848H94.997C94.6505 11.848 94.5576 11.848 94.4322 11.9734C94.2753 12.1292 94.1508 12.9369 94.1508 13.4975C94.1508 13.6524 94.1823 13.7751 94.2771 13.8691C94.526 14.1189 94.997 14.2121 95.3722 14.5846C95.6555 14.864 95.7782 15.4559 95.7782 16.3567V24.6577C95.7782 25.7161 95.6844 26.3994 95.3722 26.711C94.9338 27.1453 94.1823 27.3951 93.9631 27.6127C93.9009 27.6754 93.8684 27.799 93.8684 28.0175C93.8684 28.8252 93.9631 29.6025 94.0894 29.726C94.1832 29.8192 94.37 29.8818 94.7155 29.8818H102.609C102.984 29.8818 103.109 29.8192 103.202 29.726C103.361 29.5711 103.485 28.8252 103.485 28.0175C103.485 27.799 103.453 27.6763 103.39 27.6127C103.141 27.3656 102.421 27.1462 101.981 26.711C101.668 26.3994 101.512 25.7161 101.512 24.6586V18.5336C101.512 16.0164 102.919 15.2383 103.954 15.2383C105.02 15.2383 105.615 16.0164 105.615 17.6632V26.2776C105.615 28.5771 107.087 30.1003 109.749 30.1003C112.693 30.1003 113.945 27.987 113.945 27.5509C113.945 27.1784 113.352 26.4316 112.975 26.4316C112.536 26.4316 111.911 26.9913 111.597 26.9913C111.379 26.9913 111.254 26.8355 111.254 26.3376V16.6692L111.253 16.6683ZM169.293 27.55C170.202 26.6492 170.421 26.1191 170.421 25.6839C170.421 25.2173 170.295 24.8439 169.919 24.4714C169.513 24.0676 169.165 24.0049 168.855 24.0049C168.416 24.0049 168.228 24.1294 167.946 24.4105C166.567 25.7779 164.812 26.5229 162.683 26.5229C160.522 26.5229 159.174 25.0938 159.174 24.1911C159.174 23.944 159.393 23.7246 159.957 23.5697C165.972 21.7044 168.477 20.4615 169.417 19.5275C169.949 19.0306 170.168 18.4396 170.168 17.9112C170.168 15.5472 166.723 11.3519 161.429 11.3519C159.235 11.3519 157.012 12.2205 155.352 13.87C153.692 15.5176 152.659 17.8485 152.659 21.0212C152.659 24.0676 153.63 26.1827 155.321 27.8617C157.013 29.5407 159.456 30.3797 162.118 30.3797C164.845 30.3797 167.414 29.4162 169.293 27.55ZM164.626 17.9435C164.626 19.0941 164.124 19.4371 162.245 20.0881C160.741 20.6496 159.582 20.8976 159.236 20.8976C158.611 20.8976 158.329 20.4311 158.329 19.4667C158.329 17.1653 158.987 14.3679 161.43 14.3679C163.686 14.3679 164.626 16.7937 164.626 17.9435ZM130.797 27.55C131.704 26.6492 131.926 26.1191 131.926 25.6839C131.926 25.2173 131.8 24.8439 131.424 24.4714C131.018 24.0676 130.673 24.0049 130.359 24.0049C129.918 24.0049 129.732 24.1294 129.45 24.4105C128.072 25.7779 126.317 26.5229 124.187 26.5229C122.026 26.5229 120.679 25.0938 120.679 24.1911C120.679 23.944 120.899 23.7246 121.464 23.5697C127.476 21.7044 129.981 20.4615 130.92 19.5275C131.455 19.0306 131.673 18.4396 131.673 17.9112C131.673 15.5472 128.229 11.3519 122.933 11.3519C120.741 11.3519 118.517 12.2205 116.858 13.87C115.199 15.5194 114.164 17.8485 114.164 21.0212C114.164 24.0676 115.135 26.1827 116.826 27.8617C118.518 29.5407 120.962 30.3797 123.624 30.3797C126.349 30.3797 128.92 29.4162 130.797 27.55ZM126.131 17.9435C126.131 19.0941 125.629 19.4371 123.75 20.0881C122.246 20.6496 121.089 20.8976 120.743 20.8976C120.116 20.8976 119.835 20.4311 119.835 19.4667C119.835 17.1653 120.494 14.3679 122.935 14.3679C125.19 14.3679 126.131 16.7937 126.131 17.9435ZM188.836 16.6683C188.836 13.185 187.021 11.4137 184.172 11.4137C182.824 11.4137 181.383 11.848 179.943 12.7202C179.44 13.0309 179.283 13.1232 179.16 13.1232C178.658 13.1232 179.002 11.848 178.095 11.848H172.582C172.237 11.848 172.143 11.848 172.018 11.9734C171.861 12.1292 171.736 12.9378 171.736 13.4984C171.736 13.6524 171.768 13.776 171.863 13.87C172.112 14.1198 172.582 14.2129 172.959 14.5855C173.24 14.8648 173.365 15.4568 173.365 16.3576V24.6586C173.365 25.717 173.272 26.4003 172.96 26.7119C172.519 27.1462 171.769 27.396 171.55 27.6127C171.487 27.6772 171.456 27.7999 171.456 28.0184C171.456 28.8261 171.55 29.6033 171.672 29.7269C171.769 29.82 171.956 29.8827 172.301 29.8827H180.193C180.57 29.8827 180.695 29.82 180.79 29.7269C180.947 29.5711 181.071 28.8261 181.071 28.0184C181.071 27.7999 181.041 27.6772 180.977 27.6127C180.727 27.3665 180.006 27.1462 179.568 26.7119C179.254 26.4003 179.096 25.717 179.096 24.6586V18.5354C179.096 16.0173 180.507 15.24 181.541 15.24C182.608 15.24 183.201 16.0173 183.201 17.6632V26.2776C183.201 28.578 184.675 30.1012 187.337 30.1012C190.281 30.1012 191.533 27.9879 191.533 27.5518C191.533 27.1793 190.938 26.4325 190.563 26.4325C190.124 26.4325 189.498 26.9922 189.185 26.9922C188.965 26.9922 188.838 26.8364 188.838 26.3385V16.6674H188.836V16.6683ZM139.661 5.1338H133.648C133.271 5.1338 133.114 5.1338 133.022 5.29051C132.896 5.44453 132.801 6.2218 132.801 6.75012C132.801 6.93728 132.834 7.06175 132.895 7.18532C133.114 7.40381 133.962 7.62052 134.337 7.99393C134.649 8.30555 134.807 8.927 134.807 11.2884V23.7255C134.807 25.8101 134.589 26.4629 134.338 26.711C133.898 27.1453 133.148 27.3951 132.928 27.6118C132.866 27.6763 132.834 27.799 132.834 28.0175C132.834 28.8252 132.928 29.6025 133.052 29.726C133.147 29.8192 133.271 29.8818 133.679 29.8818H141.541C141.948 29.8818 142.073 29.8192 142.166 29.726C142.293 29.6033 142.448 28.8252 142.448 28.0175C142.448 27.799 142.418 27.6763 142.322 27.6118C142.104 27.3951 141.352 27.1453 140.944 26.711C140.601 26.3994 140.475 25.7161 140.475 24.6577V23.944C140.475 23.5401 140.601 23.4139 141.29 22.7306C141.602 22.4521 141.883 22.2354 142.103 22.2354C142.417 22.2354 142.666 22.4521 146.111 29.3535C146.33 29.7887 146.424 29.8818 146.988 29.8818H152.094C152.47 29.8818 152.596 29.8192 152.69 29.726C152.814 29.6033 152.94 28.8252 152.94 28.0175C152.94 27.799 152.909 27.6763 152.846 27.6118C152.627 27.3951 151.312 27.2393 151.029 26.711C146.488 19.0941 146.361 18.8443 146.361 18.3787C146.361 17.9748 148.367 15.9851 150.026 14.6795C151.092 13.8395 151.779 14.3983 151.779 13.4043C151.779 12.2537 151.623 11.848 151.403 11.848H143.825C143.167 11.848 143.105 12.2214 143.105 13.621C143.105 14.0867 144.419 14.1494 144.419 14.8013C144.419 15.3609 141.225 18.4091 140.693 18.4091C140.504 18.4091 140.472 18.2837 140.472 17.7554V6.0033C140.476 5.50632 140.13 5.1338 139.66 5.1338" fill="#00A650"></path><path d="M17.5458 0.256836L21.7046 12.8095L35.0155 12.8561L24.273 20.6601L28.3425 33.2414L17.5458 25.5126L6.74919 33.2405L10.8187 20.6592L0.0761719 12.857L13.3879 12.8104L17.5467 0.256836H17.5458Z" fill="#FF0000"></path><path d="M188.853 4.47852C189.379 4.47852 189.885 4.61015 190.37 4.87252C190.85 5.13022 191.245 5.51976 191.508 5.99454C191.786 6.48257 191.925 6.99299 191.925 7.52579C191.924 8.05969 191.783 8.58416 191.515 9.04719C191.252 9.52123 190.858 9.91149 190.38 10.1728C189.915 10.4365 189.388 10.5752 188.851 10.5752C188.315 10.5752 187.788 10.4365 187.322 10.1728C186.846 9.9092 186.453 9.51951 186.187 9.04719C185.923 8.5834 185.784 8.05962 185.783 7.52669C185.783 6.99299 185.921 6.48257 186.196 5.99454C186.476 5.50651 186.855 5.13221 187.338 4.87252C187.802 4.61513 188.323 4.4795 188.854 4.47852M188.858 5.07579C188.433 5.07606 188.015 5.18393 187.643 5.38921C187.255 5.59964 186.949 5.89962 186.724 6.29363C186.508 6.66695 186.394 7.0897 186.392 7.52025C186.391 7.95079 186.502 8.37428 186.716 8.749C186.934 9.13674 187.239 9.43851 187.631 9.65611C188.003 9.8699 188.426 9.98246 188.857 9.98246C189.287 9.98246 189.71 9.8699 190.083 9.65611C190.467 9.44482 190.784 9.1305 190.997 8.749C191.217 8.36126 191.327 7.95472 191.327 7.52758C191.327 7.09776 191.214 6.68584 190.989 6.29363C190.778 5.9103 190.459 5.59612 190.071 5.38921C189.7 5.18397 189.282 5.0761 188.858 5.07579ZM187.467 9.15823V5.9229H188.128C188.748 5.9229 189.095 5.92559 189.17 5.93096C189.389 5.94887 189.559 5.99365 189.679 6.0626C189.808 6.13515 189.914 6.24298 189.983 6.37332C190.067 6.51278 190.11 6.67234 190.108 6.83449C190.112 7.05693 190.029 7.27218 189.875 7.43445C189.723 7.60012 189.507 7.7022 189.23 7.7416C189.312 7.77019 189.389 7.81194 189.458 7.86517C189.513 7.90816 189.585 7.99054 189.679 8.11232C189.702 8.14456 189.783 8.2753 189.919 8.50633L190.305 9.15912H189.486L189.214 8.63438C189.03 8.28157 188.877 8.06038 188.757 7.96994C188.625 7.87342 188.464 7.82445 188.3 7.83115H188.129V9.16002H187.467M188.128 7.31983H188.396C188.778 7.31983 189.016 7.30461 189.106 7.27506C189.193 7.24964 189.27 7.19677 189.324 7.12441C189.378 7.05206 189.407 6.96414 189.407 6.87389C189.409 6.78727 189.38 6.70277 189.326 6.6348C189.272 6.56056 189.194 6.50682 189.106 6.48257C189.01 6.45213 188.773 6.43601 188.396 6.43601H188.128V7.31983Z" fill="#00A650"></path></g><defs><clipPath id="clip0_1_2188"><rect width="192" height="34" fill="white"></rect></clipPath></defs></svg>