<svg xmlns="http://www.w3.org/2000/svg" width="192" height="40" viewBox="0 0 192 40" fill="none"><path d="M29.1515 2.00488C19.1362 2.00488 11 10.0711 11 20.0004C11 29.9296 19.1362 37.9959 29.1515 37.9959C39.1667 37.9959 47.3029 29.9296 47.3029 20.0004C47.3029 10.0711 39.1667 2.00488 29.1515 2.00488ZM29.1515 36.1924C20.1357 36.1924 12.8191 28.9189 12.8191 20.0004C12.8191 11.0819 20.1357 3.8084 29.1515 3.8084C38.1672 3.8084 45.4838 11.0819 45.4838 20.0004C45.4838 28.9189 38.1672 36.1924 29.1515 36.1924Z" fill="#000E3C"></path><path d="M35.628 8.46531C35.568 8.42567 35.4881 8.40585 35.4081 8.40585C35.1682 8.40585 34.9883 8.58422 34.9883 8.82205V14.4506C34.9883 14.6488 34.8284 14.8073 34.6285 14.8073H23.6336C23.4337 14.8073 23.2938 14.6488 23.2738 14.4506V8.82205C23.2738 8.74277 23.2538 8.68332 23.2138 8.60404C23.0939 8.40585 22.834 8.3464 22.6341 8.46531C18.576 10.9427 16.1172 15.2434 16.1172 19.9999C16.1172 24.7564 18.576 29.0571 22.6741 31.5344C22.7341 31.5741 22.814 31.5939 22.894 31.5939C23.1339 31.5939 23.3138 31.4155 23.3138 31.1777V25.5491C23.3138 25.351 23.4737 25.2122 23.6736 25.1924H34.6685C34.8684 25.1924 35.0283 25.351 35.0283 25.5491V31.1777C35.0283 31.257 35.0483 31.3164 35.0883 31.3957C35.2082 31.5939 35.4681 31.6533 35.668 31.5344C39.7661 29.0571 42.2249 24.7564 42.2249 19.9999C42.2249 15.2434 39.7261 10.9427 35.628 8.46531ZM21.1948 27.0554L21.2548 27.7292L20.815 27.1941C17.4366 22.9727 17.4366 17.0072 20.815 12.7858L21.1948 12.3102L21.2548 12.2507L21.1948 12.9444C21.1348 13.4993 21.1148 14.074 21.1148 14.6488V25.3311C21.1148 25.9059 21.1548 26.4806 21.1948 27.0554ZM34.9883 22.6952C34.9883 22.8934 34.8284 23.052 34.6285 23.052H23.6336C23.4337 23.052 23.2938 22.8934 23.2738 22.6952V17.3045C23.2738 17.1063 23.4337 16.9478 23.6336 16.9478H34.6285C34.8284 16.9478 34.9883 17.1063 34.9883 17.3045V22.6952ZM37.4671 27.1941L37.0273 27.7292L37.0873 27.0554C37.1473 26.5004 37.1673 25.9257 37.1673 25.351V14.6488C37.1673 14.074 37.1473 13.4993 37.0873 12.9444L37.0673 12.6471L37.0473 12.33V12.2507L37.4671 12.7858C39.1064 14.8073 40.0059 17.3838 40.0059 19.9801C40.0059 22.5763 39.1064 25.1726 37.4671 27.1941Z" fill="#000E3C"></path><path d="M74.6904 19.683C74.5905 19.6434 74.4705 19.6038 74.4705 19.4848C74.4705 19.4056 74.5105 19.3461 74.5905 19.3065C74.7304 19.247 78.1888 18.0183 78.1888 13.9752C78.1888 9.47634 75.1302 6.80079 69.9726 6.80079H57.4785V33.2391H71.1121C75.0902 33.2391 79.3682 30.4447 79.3682 25.9458C79.3682 21.6451 76.0898 20.1389 74.6904 19.683ZM63.7756 12.2113C63.7756 12.1122 63.8555 12.033 63.9555 12.033H68.9131C70.5524 12.033 71.6718 13.123 71.6718 14.7481C71.6718 16.0166 70.6723 17.384 68.7932 17.384H63.9555C63.8555 17.384 63.7756 17.3048 63.7756 17.2057V12.2113ZM68.9131 28.0268H63.9555C63.8555 28.0268 63.7756 27.9475 63.7756 27.8484V22.5766C63.7756 22.4775 63.8555 22.3982 63.9555 22.3982H68.7932C71.1721 22.3982 72.5314 23.409 72.5314 25.1927C72.5314 27.0358 71.272 28.0268 68.9131 28.0268ZM121.568 17.3246L120.609 17.1264C118.45 16.6706 116.351 16.0958 116.351 14.2527C116.351 12.4095 118.09 11.5771 119.809 11.5771C121.828 11.5771 123.827 12.469 125.347 14.0148L129.305 10.1304C127.606 8.26739 124.587 6.12695 119.709 6.12695C113.832 6.12695 109.874 9.4367 109.874 14.3716C109.874 19.5839 114.012 21.546 117.49 22.2793L118.43 22.4775C121.808 23.191 123.407 23.7261 123.407 25.6287C123.407 27.3331 121.868 28.4628 119.589 28.4628C116.911 28.4628 114.532 27.2935 112.733 25.0936L108.674 29.0375C110.833 31.5743 113.692 33.8733 119.669 33.8733C124.767 33.8733 129.944 30.9401 129.944 25.3116C129.924 19.5443 125.966 18.2363 121.568 17.3246ZM174.244 6.80079V16.4724C174.244 16.5715 174.164 16.6508 174.064 16.6508H165.868C165.768 16.6508 165.688 16.5715 165.688 16.4724V6.80079H158.971V33.2391H165.688V22.854C165.688 22.755 165.768 22.6757 165.868 22.6757H174.064C174.164 22.6757 174.244 22.755 174.244 22.854V33.2391H181V6.80079H174.244ZM145.457 27.8286C142.439 27.8286 139.18 25.3314 139.18 19.8416C139.18 14.8274 142.239 12.2113 145.257 12.2113C147.456 12.2113 148.995 13.123 150.215 15.1445L155.372 11.7555C152.734 7.91065 149.595 6.16659 145.217 6.16659C136.641 6.16659 132.803 13.0437 132.803 19.8416C132.803 28.106 137.881 33.8733 145.137 33.8733C150.535 33.8733 152.994 31.9113 155.572 28.2844L150.375 24.8161C149.215 26.6791 147.956 27.8286 145.457 27.8286ZM94.4611 6.12695C87.1246 6.12695 82.2069 11.696 82.2069 20.0001C82.2069 28.3042 87.1246 33.8733 94.4611 33.8733C101.798 33.8733 106.715 28.3042 106.715 20.0001C106.715 11.696 101.798 6.12695 94.4611 6.12695ZM94.4611 27.8286C90.8628 27.8286 88.5439 24.7567 88.5439 20.0001C88.5439 15.2634 90.8628 12.2113 94.4611 12.2113C98.0794 12.2113 100.418 15.2634 100.418 20.0001C100.418 24.7567 98.0794 27.8286 94.4611 27.8286Z" fill="#F80000"></path></svg>