<svg xmlns="http://www.w3.org/2000/svg" width="192" height="40" viewBox="0 0 192 40" fill="none"><path d="M153.292 31.8384C153.292 30.0599 152.036 28.7576 150.305 28.7576C148.577 28.7576 147.32 30.0599 147.32 31.8384C147.32 33.614 148.577 34.9141 150.305 34.9141C152.036 34.9141 153.292 33.6118 153.292 31.8384ZM149.52 31.9964V34.0086H148.873V29.5715H150.482C151.425 29.5715 151.858 29.9849 151.858 30.7908C151.858 31.2872 151.524 31.6804 151.093 31.7374V31.7561C151.467 31.816 151.604 32.1508 151.681 32.7633C151.74 33.1602 151.818 33.8484 151.959 34.0101H151.193C151.015 33.593 151.033 33.0029 150.895 32.5086C150.782 32.1328 150.582 31.9957 150.153 31.9957H149.524V31.9978L149.52 31.9964ZM150.323 31.4228C150.952 31.4228 151.132 31.0866 151.132 30.7901C151.132 30.4394 150.952 30.1624 150.323 30.1624H149.52V31.4243H150.323V31.4228ZM146.607 31.8384C146.607 29.6472 148.34 28.166 150.302 28.166C152.27 28.166 154.001 29.6472 154.001 31.8384C154.001 34.0252 152.271 35.5079 150.302 35.5079C148.34 35.5079 146.607 34.0252 146.607 31.8384Z" fill="#FF5A00"></path><path d="M133.801 34.868L129.541 30.0723L125.318 34.868H116.433L125.117 25.0745L116.433 15.2782H125.596L129.899 20.0371L134.04 15.2782H142.882L134.241 25.0334L143.002 34.868H133.801ZM99.3721 34.868V4.00781H116.433V10.8865H106.599V15.2782H116.433V21.8971H106.599V27.972H116.433V34.868H99.3721Z" fill="#FF5A00"></path><path d="M92.1721 4.00781V16.6374H92.0924C90.4989 14.7991 88.5073 14.1584 86.198 14.1584C81.4658 14.1584 77.9009 17.39 76.6496 21.659C75.2222 16.9542 71.5415 14.0704 66.0849 14.0704C61.6524 14.0704 58.1536 16.0667 56.3259 19.3207V15.2774H47.1656V10.8872H57.1632V4.00926H39V34.868H47.1656V21.8971H55.3045C55.0538 22.8945 54.9285 23.9196 54.9315 24.9483C54.9315 31.3825 59.8297 35.904 66.0834 35.904C71.3403 35.904 74.8075 33.4243 76.6395 28.9099H69.6412C68.6953 30.2685 67.9766 30.6697 66.0841 30.6697C63.8906 30.6697 61.9974 28.7476 61.9974 26.472H76.2471C76.8652 31.5838 80.8326 35.9913 86.2778 35.9913C88.6266 35.9913 90.7771 34.8319 92.0916 32.8731H92.1707V34.8723H99.3703V4.00926H92.1721V4.00781ZM62.2245 21.9894C62.6795 20.0284 64.1939 18.7471 66.0841 18.7471C68.1656 18.7471 69.6031 19.9888 69.9804 21.9894H62.2245ZM87.8029 30.1718C85.1501 30.1718 83.5013 27.6906 83.5013 25.0991C83.5013 22.3285 84.9359 19.667 87.8029 19.667C90.7778 19.667 91.963 22.33 91.963 25.0991C91.963 27.7238 90.7081 30.1718 87.8029 30.1718Z" fill="#29007C"></path></svg>