<svg xmlns="http://www.w3.org/2000/svg" width="192" height="40" viewBox="0 0 192 40" fill="none"><g clip-path="url(#clip0_1_2246)"><path d="M57.8597 0.0136719C58.1192 0.137182 58.2836 0.393025 58.4913 0.595935C58.8287 0.895889 59.0796 1.29289 59.4084 1.60166C59.815 1.99866 60.0745 2.50152 60.4119 2.95145C61.0002 3.86014 61.5193 4.83057 61.7875 5.88923C62.0644 6.61265 62.1076 7.39782 62.0903 8.17417C62.1076 8.87994 61.9173 9.5769 61.6057 10.2121C61.0694 11.1737 60.1005 11.8177 59.0882 12.1618C57.8251 12.4706 56.4322 12.5235 55.2124 11.9765C54.7711 11.7295 54.2694 11.5619 53.9147 11.1737C53.0928 10.4856 52.617 9.36516 52.7727 8.28004C53.0149 6.34798 54.1483 4.68942 55.3595 3.26023C55.4719 3.47196 55.3767 3.71898 55.4546 3.93953C55.5584 4.40711 55.7228 4.90115 56.0689 5.23639C56.4928 4.83939 56.9427 4.4424 57.3061 3.98364C57.6349 3.4896 57.903 2.94263 58.0154 2.36037C58.0415 1.61931 58.1107 0.842955 57.8338 0.137182L57.8597 0.0136719ZM42.0104 8.82701C44.0348 8.84466 46.0679 8.80937 48.0924 8.84466C48.0924 10.9002 48.1096 12.9558 48.0837 15.0113C49.5199 15.0378 50.9559 15.0202 52.4007 15.0202C52.418 15.179 52.4266 15.3378 52.4266 15.4966C52.4093 17.1904 52.4353 18.8755 52.4093 20.5693C50.9646 20.587 49.5284 20.5693 48.0837 20.5781C48.1096 23.6218 48.075 26.6566 48.101 29.7002C48.1529 29.9649 48.1875 30.2296 48.1788 30.5031C48.1528 30.7502 48.2999 30.9531 48.3519 31.1824C48.4643 31.7117 48.7498 32.1881 49.0785 32.6028C49.563 33.0969 50.1859 33.4409 50.852 33.5908C51.4576 33.688 52.0632 33.7408 52.6775 33.6967C52.7121 33.8026 52.7294 33.9084 52.7294 34.0231C52.7208 35.6111 52.7208 37.1991 52.7294 38.7783C52.7294 38.9988 52.6862 39.2194 52.6516 39.431C51.7778 39.431 50.9041 39.4928 50.0302 39.431C49.5111 39.3163 48.9575 39.3693 48.4557 39.1399C47.0628 38.8046 45.7305 38.0989 44.7356 37.0314C43.2735 35.5935 42.4862 33.5644 42.1661 31.5529C42.0796 31.3323 42.1315 31.0765 42.0968 30.8383C41.9758 30.3531 42.0276 29.8413 42.0103 29.3474C42.0018 22.5102 42.0018 15.6642 42.0104 8.82701ZM71.5635 14.5438C71.9267 14.4467 72.316 14.5173 72.6794 14.4379C73.4407 14.3409 74.1934 14.4644 74.9461 14.4908C75.4738 14.482 75.9842 14.6408 76.5033 14.7467C78.4326 15.2231 80.258 16.2729 81.5817 17.808C81.8153 18.205 82.17 18.4961 82.3948 18.9019C82.9571 19.8106 83.3292 20.8252 83.6493 21.8485C83.8483 22.5984 83.952 23.3748 84.0473 24.1423C84.0906 25.845 84.0646 27.5565 84.0733 29.2591C84.0646 32.6557 84.0819 36.0522 84.0646 39.4487C82.0402 39.4223 80.0244 39.4399 78.0086 39.4311C77.9913 39.4223 77.9481 39.387 77.9308 39.3693C77.9221 34.6143 77.9308 29.859 77.9308 25.1127C77.9394 24.5305 77.8356 23.9658 77.7145 23.41C77.4982 22.8454 77.2214 22.3073 76.8407 21.8485C76.6157 21.575 76.3043 21.3986 76.0534 21.1604C75.664 20.8957 75.2055 20.7722 74.7644 20.6487C74.5308 20.6311 74.2972 20.6487 74.0809 20.5693C73.1552 20.5076 72.2122 20.587 71.3471 20.9487C70.7155 21.2574 70.1272 21.6809 69.712 22.272C69.0285 23.1013 68.8036 24.2305 68.8209 25.2892C68.8209 30.0002 68.8296 34.7201 68.8209 39.4311C66.7791 39.4487 64.7375 39.4223 62.6957 39.4487C62.6611 34.9053 62.6957 30.3531 62.6784 25.8097C62.6871 25.2273 62.6698 24.6451 62.713 24.0628C62.8255 23.7717 62.7476 23.4542 62.8341 23.1718C62.9898 22.0955 63.3878 21.0721 63.829 20.0928C64.2615 19.2371 64.7806 18.4166 65.4554 17.7373C65.9833 17.1903 66.5282 16.6169 67.1944 16.2375C68.4836 15.3201 70.0062 14.7643 71.5635 14.5438ZM144.062 14.4908C144.814 14.4732 145.559 14.3232 146.311 14.4467C146.718 14.4997 147.133 14.4908 147.54 14.5085C147.618 15.276 147.557 16.0524 147.574 16.8199V19.9076C147.574 20.1017 147.6 20.3046 147.522 20.4899C147.323 20.34 147.055 20.3929 146.83 20.3311C145.913 20.2518 144.97 20.2959 144.105 20.6488C143.076 21.0105 142.176 21.778 141.674 22.7749C141.527 22.9602 141.527 23.2249 141.363 23.4013C141.094 24.3894 141.077 25.4216 141.094 26.4361C141.086 30.7766 141.12 35.1083 141.077 39.4488C139.061 39.4224 137.037 39.4488 135.012 39.4312C134.995 39.4135 134.969 39.3782 134.952 39.3606V25.201C134.926 24.6099 135.056 24.0365 135.047 23.4542C135.185 23.1719 135.151 22.8455 135.237 22.5544C135.67 20.3224 136.821 18.2139 138.568 16.7759C138.905 16.3877 139.39 16.2024 139.788 15.8937C141.077 15.0907 142.574 14.7026 144.062 14.4908ZM54.3905 15.0113C56.4322 15.0466 58.474 15.0025 60.5157 15.029C60.5157 23.1013 60.507 31.1646 60.5157 39.2282C60.5157 39.3076 60.5157 39.4664 60.3946 39.4399H54.4079C54.3559 38.1078 54.3992 36.7668 54.3819 35.4347C54.3905 28.6328 54.3819 21.8221 54.3905 15.0113ZM118.454 31.3853C118.973 31.1824 119.475 30.9177 120.002 30.7325C120.764 30.4326 121.508 30.0709 122.269 29.7709C123.844 29.0299 125.47 28.4124 127.062 27.7154C127.442 27.5036 127.875 27.4066 128.247 27.1772C128.671 27.0096 129.095 26.8595 129.51 26.6654C129.874 26.4449 130.289 26.3566 130.661 26.1626C131.154 25.9597 131.63 25.7304 132.132 25.5451C132.642 25.2539 133.213 25.1128 133.723 24.8304C133.862 24.7334 134.087 24.7598 134.173 24.5922C134.026 24.3806 134.104 24.1159 134.026 23.8864C133.914 23.4719 133.801 23.066 133.706 22.6602C133.317 21.434 132.754 20.2606 131.993 19.2373C131.067 17.8698 129.796 16.767 128.386 15.9554C127.46 15.382 126.422 15.0555 125.384 14.7732C124.743 14.6938 124.129 14.4645 123.48 14.4733C122.892 14.3939 122.286 14.3586 121.707 14.4645C120.677 14.4821 119.691 14.7379 118.713 15.0291C117.009 15.6378 115.391 16.5641 114.085 17.8434C113.696 18.2139 113.375 18.6462 113.003 19.0255C112.424 19.7842 111.896 20.587 111.498 21.4516C110.936 22.7485 110.399 24.1071 110.339 25.5451C110.149 26.2332 110.209 26.9566 110.2 27.6624C110.183 28.1123 110.252 28.5535 110.339 28.9857C110.313 29.4444 110.486 29.868 110.546 30.3091C110.694 31.2442 111.1 32.1087 111.472 32.9733C112.493 35.1082 114.102 36.9609 116.118 38.1695C117.442 38.9988 118.912 39.5899 120.452 39.8104C121.707 40.0134 122.996 40.0486 124.259 39.8811C124.691 39.9163 125.107 39.7222 125.539 39.6958C127.382 39.2547 129.19 38.4607 130.583 37.1285C130.998 36.7933 131.388 36.3963 131.716 35.9727C132.27 35.3993 132.668 34.7024 133.066 34.0143C133.447 33.282 133.758 32.5056 133.983 31.7029C133.862 31.6499 133.724 31.6676 133.602 31.6676C131.578 31.6765 129.562 31.6588 127.538 31.6676C127.348 31.6676 127.348 31.9323 127.226 32.0381C126.88 32.5498 126.439 32.9821 125.972 33.3879C125.297 33.882 124.501 34.1467 123.714 34.3848C123.506 34.4114 123.307 34.4025 123.117 34.4819C122.632 34.5171 122.139 34.4996 121.646 34.4908C121.101 34.3849 120.556 34.2614 120.028 34.0849C119.215 33.6615 118.419 33.1763 117.805 32.4881C117.649 32.2941 117.398 32.1441 117.346 31.8881C117.485 31.8264 117.615 31.7293 117.77 31.7029C118.021 31.6588 118.212 31.4559 118.454 31.3853ZM115.962 26.9213C115.841 26.6125 115.954 26.2508 115.936 25.9244C116.075 25.4743 116.118 24.998 116.282 24.548C116.698 23.5511 117.208 22.5719 117.952 21.7867C118.298 21.4956 118.592 21.1427 118.99 20.9221C119.284 20.7633 119.57 20.5869 119.873 20.4457C120.435 20.2782 120.98 20.0135 121.568 20.0135C122.105 19.8812 122.658 19.9518 123.203 19.9605C124.631 20.1635 126.067 20.7898 126.993 21.9455C127.088 22.1749 126.768 22.1926 126.638 22.2808C126.076 22.5984 125.444 22.7571 124.882 23.0836C124.631 23.1277 124.415 23.2865 124.172 23.3659C122.381 24.1599 120.556 24.8568 118.783 25.6862C117.831 26.0655 116.888 26.4713 115.962 26.9213ZM109.517 4.23067C107.622 4.21302 105.728 4.23067 103.833 4.22184C103.695 4.23949 103.53 4.17773 103.418 4.2836C103.435 8.43001 103.418 12.5853 103.426 16.7317C103.418 16.8816 103.452 17.0316 103.392 17.1728C103.219 17.1463 103.132 16.9787 103.003 16.8816C102.129 16.1141 101.151 15.4613 100.061 15.0819C99.3257 14.7908 98.5558 14.6408 97.7772 14.4997C96.8947 14.482 96.0037 14.4556 95.1125 14.5085C95.0173 14.535 94.9308 14.5614 94.8357 14.5702C92.8546 14.8525 91.0031 15.7965 89.4805 17.0934C88.6327 17.905 87.7849 18.7519 87.1879 19.7753C86.4872 20.7899 86.0373 21.9544 85.6047 23.1013C85.4057 23.8247 85.2067 24.5393 85.1202 25.2803C84.9558 26.4184 85.025 27.5829 85.0423 28.7298C85.0855 29.0298 85.1807 29.3121 85.1894 29.612C85.3451 30.5825 85.6219 31.5353 86.0025 32.4439C86.3226 33.3173 86.8417 34.1113 87.3175 34.9053C87.6549 35.3464 87.9837 35.8052 88.3903 36.1934C88.9959 36.8021 89.5927 37.4637 90.3541 37.8872C91.2538 38.5842 92.3179 38.9989 93.3561 39.4046C93.7367 39.4752 94.0914 39.6958 94.4808 39.7046C94.8095 39.731 95.1123 39.8898 95.4411 39.8721C95.6142 39.8545 95.7699 39.978 95.9515 39.9603C96.7907 39.9868 97.6385 39.9868 98.4777 39.9603C98.6161 39.9603 98.7545 39.8986 98.9016 39.8898C99.4812 39.8986 100.018 39.6692 100.58 39.5898C101.315 39.3163 102.103 39.1399 102.786 38.7341C103.798 38.2577 104.715 37.5873 105.537 36.8285C106.575 35.9111 107.414 34.7642 108.037 33.5113C108.306 32.9555 108.608 32.4174 108.781 31.8175C109.11 30.9882 109.257 30.106 109.37 29.2326C109.56 28.4651 109.5 27.6622 109.517 26.8682C109.517 19.3254 109.517 11.7824 109.517 4.23067ZM103.366 28.1211C103.314 29.0563 102.968 29.9473 102.561 30.7854C101.878 32.0999 100.727 33.1056 99.4209 33.7408C99.2218 33.8467 98.9622 33.8379 98.8239 34.0319C98.5817 34.0319 98.3394 34.0408 98.1059 34.1291C97.3617 34.1467 96.5919 34.2173 95.8652 34.0056C95.5537 33.8556 95.2076 33.7939 94.8962 33.6262C94.5069 33.4056 94.0657 33.2557 93.7456 32.9204C93.14 32.4881 92.6729 31.8971 92.2489 31.2883C91.9115 30.6972 91.5741 30.0885 91.4183 29.418C91.2453 29.0651 91.2625 28.6681 91.1675 28.2976C91.1415 27.3537 91.0896 26.3833 91.3059 25.4657C91.4011 25.1746 91.4617 24.8658 91.5654 24.5747C91.8163 24.107 91.972 23.5866 92.3008 23.1631C92.4738 22.7926 92.7766 22.519 93.0189 22.2015C93.6678 21.4428 94.5589 20.9576 95.4585 20.5782C95.7959 20.4989 96.1247 20.3225 96.4795 20.3225C97.1975 20.1371 97.9415 20.2872 98.651 20.4195C99.5853 20.7636 100.511 21.24 101.238 21.9457C101.506 22.2016 101.705 22.5192 101.973 22.775C103.08 24.2923 103.591 26.242 103.366 28.1211ZM144.01 36.3433H146.277C146.285 36.5198 146.285 36.6962 146.277 36.8727C146.017 36.908 145.758 36.8638 145.507 36.8991C145.472 37.6931 145.507 38.4783 145.489 39.2723C145.256 39.2547 145.022 39.2547 144.797 39.2635C144.771 38.637 144.78 38.0018 144.789 37.3755C144.789 37.2079 144.823 37.0138 144.676 36.8991C144.451 36.8639 144.226 36.908 144.001 36.8727C143.993 36.6962 143.993 36.5198 144.01 36.3433ZM146.692 36.3522C147.012 36.3433 147.332 36.3256 147.652 36.3697C147.635 36.6256 147.843 36.802 147.903 37.0403C147.99 37.3402 148.119 37.6226 148.206 37.9225C148.275 38.0548 148.396 38.1695 148.353 38.3371C148.526 37.6489 148.794 36.9962 149.062 36.3522C149.365 36.3433 149.677 36.3345 149.988 36.3522C150.005 37.296 149.988 38.2577 149.988 39.2017C149.78 39.2194 149.573 39.2194 149.356 39.2017C149.365 38.5401 149.356 37.8784 149.374 37.2256C149.296 37.2961 149.218 37.3579 149.157 37.4461C149.045 38.046 148.742 38.593 148.595 39.1929C148.422 39.2194 148.258 39.2194 148.085 39.2018C148.033 38.8666 147.799 38.5931 147.799 38.249C147.566 37.9578 147.557 37.5432 147.375 37.2168C147.254 37.455 147.349 37.7372 147.323 37.9932C147.289 38.4078 147.367 38.8313 147.289 39.2459C147.081 39.2459 146.848 39.3165 146.683 39.1665C146.709 38.2313 146.683 37.2961 146.692 36.3522Z" fill="#DF4723" stroke="#DF4723" stroke-width="0.188247"></path></g><defs><clipPath id="clip0_1_2246"><rect width="192" height="40" fill="white"></rect></clipPath></defs></svg>