<svg xmlns="http://www.w3.org/2000/svg" width="192" height="40" viewBox="0 0 192 40" fill="none"><path d="M45.2205 6C48.0723 6.47678 50.7539 8.0805 52.4565 10.4644C52.797 10.9412 53.1375 11.4613 53.3929 12.0248C52.2862 12.805 51.1795 13.5418 50.1154 14.322C49.9452 14.452 49.8175 14.5387 49.6046 14.6254C49.0939 13.3251 48.2 12.1548 47.0508 11.3746C46.1995 10.8111 45.2205 10.4211 44.2415 10.2043C44.5395 8.81734 44.88 7.43034 45.2205 6ZM34.9198 7.25697C36.2393 6.82353 37.7717 7.51703 38.325 8.77399C38.7932 9.72755 38.6655 10.9845 38.0271 11.808C37.2183 12.8483 35.686 13.2384 34.5367 12.6316C33.7706 12.2415 33.1747 11.5046 33.0044 10.6378C32.8767 9.98762 32.9193 9.29412 33.2598 8.68731C33.6003 7.99381 34.2388 7.51703 34.9198 7.25697ZM29.0459 22.0372C30.6208 21.9938 32.1531 22.0372 33.728 22.0372C34.026 23.7709 34.7496 25.418 35.8988 26.7183C36.7927 27.7585 37.9419 28.4954 39.1763 28.9721C40.8789 29.6223 42.7517 29.709 44.5395 29.2755C46.1569 28.8855 47.6041 27.9752 48.6682 26.6316C49.3918 25.7214 49.9452 24.6811 50.2431 23.5542C51.6478 23.9443 52.9673 24.4644 54.3719 24.8978C54.3293 25.3313 54.1591 25.7647 53.9888 26.1981C53.0524 28.6687 51.3072 30.7926 49.0513 32.1362C47.6041 33.0031 45.9441 33.5666 44.2841 33.7833C41.0066 34.2167 37.5588 33.5232 34.7921 31.6594C33.3024 30.6625 31.9829 29.3189 31.0464 27.7585C29.9398 26.1115 29.3013 24.1176 29.0459 22.0372Z" fill="#28BB4E"></path><path d="M58.1178 18.1362C60.1183 14.842 64.545 13.325 68.0779 14.842C69.1846 15.2755 69.9508 16.1857 70.5892 17.1826C70.5467 16.4024 70.5467 15.6222 70.5467 14.7987H74.8031C74.8883 20.9968 74.6329 27.195 74.9734 33.3931H70.8021C70.7595 32.5262 70.7169 31.7027 70.6744 30.8358C68.5036 34.7801 62.8425 34.6501 59.7778 31.9628C55.9895 28.582 55.4788 22.3405 58.1178 18.1362ZM64.5876 18.2228C60.6717 19.2197 59.9906 24.5944 61.7783 27.7151C63.1404 30.2724 66.9712 30.7925 68.9292 28.6687C70.8872 26.5882 71.0574 23.2074 69.9082 20.6501C69.0143 18.6563 66.6307 17.7027 64.5876 18.2228ZM96.5537 16.1423C99.6609 13.5417 104.471 13.5851 107.663 16.0557C110.345 18.2228 111.068 21.9504 110.813 25.2445C106.344 25.2879 101.832 25.2445 97.3624 25.2445C97.5753 27.0649 98.5542 28.9287 100.299 29.6222C102.811 30.8792 106.131 29.6656 107.025 26.8916C108.259 27.2817 109.451 27.6718 110.685 28.0185C110.004 29.9256 108.77 31.7027 106.982 32.6996C103.492 34.7368 98.6394 34.13 95.7875 31.1826C91.8716 27.195 92.1695 19.6965 96.5537 16.1423ZM98.5542 19.4798C97.9158 20.1733 97.7029 21.1269 97.4476 21.9937C100.47 21.9937 103.534 22.0804 106.556 21.9071C106.258 20.7801 105.918 19.5665 104.939 18.8297C103.109 17.4427 100.087 17.616 98.5542 19.4798ZM117.325 15.969C120.262 13.6718 124.561 13.6718 127.669 15.6222C130.733 17.6594 131.755 21.7337 131.329 25.2445C126.86 25.2012 122.39 25.2445 117.921 25.2445C118.134 26.3281 118.389 27.455 119.113 28.2786C120.73 30.3157 123.965 30.7058 126.008 29.1454C126.775 28.582 127.115 27.6284 127.669 26.9349C128.86 27.2383 130.052 27.6718 131.244 28.0619C130.563 30.0123 129.286 31.7894 127.456 32.7863C124.008 34.6934 119.326 34.1733 116.517 31.356C112.345 27.325 112.686 19.4798 117.325 15.969ZM119.028 19.5232C118.432 20.2167 118.219 21.1269 117.964 21.9937H127.03C126.817 20.9101 126.519 19.7399 125.625 18.9597C123.795 17.3993 120.603 17.5293 119.028 19.5232ZM139.672 17.0526C142.098 13.2383 148.525 13.2817 150.568 17.4427C152.526 14.0185 157.421 13.2383 160.486 15.5355C162.146 16.8358 162.912 19.003 162.912 21.0835C162.955 25.1578 162.912 29.2321 162.912 33.3064H158.698V22.3405C158.698 21.2136 158.528 19.9999 157.762 19.1764C156.144 17.5293 153.037 17.9628 151.973 20.0433C151.42 20.9968 151.42 22.1671 151.42 23.2074V33.3064H147.163C147.121 29.3622 147.206 25.4179 147.121 21.517C147.121 19.7832 145.716 18.1795 143.971 18.2228C141.928 17.9194 140.012 19.6098 139.885 21.647C139.757 25.5479 139.885 29.4488 139.842 33.3064H135.543V14.712H139.714C139.714 15.5355 139.714 16.3157 139.672 17.0526ZM80.3366 14.7554H84.593C84.593 15.7089 84.5505 16.7058 84.5505 17.6594C85.7423 15.2321 88.509 14.2352 91.0203 14.582V19.1331C89.5305 19.0897 87.8705 18.9163 86.5936 19.8699C85.2315 20.7801 84.7633 22.5572 84.7207 24.1176C84.6782 27.195 84.7207 30.2724 84.6782 33.3498H80.3366V14.7554Z" fill="#28BB4E"></path></svg>