<svg width="40" height="40" viewBox="0 0 40 40" fill="none" xmlns="http://www.w3.org/2000/svg">
<path d="M5.06523 40C4.02227 39.7271 3.14723 39.2132 2.56811 38.2698C2.20303 37.6956 2.00715 37.0301 2.00292 36.3496C1.9998 29.9391 2.00043 23.5286 2.0048 17.1182C2.00101 16.6737 2.08991 16.2334 2.26585 15.8252C2.44179 15.417 2.7009 15.05 3.02664 14.7476C3.69254 14.1084 4.37415 13.4857 5.06055 12.8688C5.159 12.7865 5.23691 12.6823 5.28811 12.5646C5.33931 12.4469 5.3624 12.3189 5.35553 12.1908C5.34564 9.94126 5.34856 7.69177 5.35074 5.44228C5.35199 4.12265 6.17406 3.29745 7.48693 3.29651C9.97053 3.29495 12.4541 3.29183 14.9376 3.3013C15.0847 3.31091 15.2322 3.28968 15.3706 3.23897C15.509 3.18827 15.6353 3.1092 15.7414 3.00685C16.5321 2.25438 17.3457 1.52502 18.1485 0.784825C19.2708 -0.249921 20.7975 -0.264178 21.9199 0.758083C22.7465 1.51086 23.5742 2.26271 24.3858 3.03192C24.483 3.12517 24.5986 3.19716 24.7251 3.24332C24.8517 3.28948 24.9865 3.3088 25.1209 3.30005C27.6174 3.29311 30.114 3.29193 32.6106 3.29651C33.9232 3.29745 34.7449 4.12264 34.7462 5.44279C34.7485 7.6798 34.7525 9.91588 34.7406 12.1524C34.7326 12.2931 34.7579 12.4338 34.8143 12.563C34.8708 12.6922 34.9569 12.8063 35.0656 12.8961C35.6882 13.4475 36.2906 14.0223 36.9072 14.5808C37.7402 15.3351 38.1038 16.2728 38.1017 17.3919C38.0923 23.6073 38.0907 29.8227 38.0968 36.0381C38.0968 38.0724 37.0979 39.3917 35.1392 39.9556C35.1024 39.9683 35.0664 39.9832 35.0314 40H5.06523ZM20.087 4.68128C15.9774 4.68128 11.8677 4.68128 7.75807 4.68128C6.94484 4.68128 6.73654 4.88698 6.73634 5.69188C6.73529 9.67147 6.73314 13.6511 6.72988 17.6306C6.72172 17.7709 6.75002 17.9109 6.81201 18.037C6.874 18.1631 6.96758 18.271 7.08364 18.3502C11.1852 21.5278 15.2825 24.7108 19.3755 27.8992C20.0014 28.3859 20.0997 28.3905 20.7253 27.9039C24.8109 24.7267 28.8971 21.5505 32.984 18.3754C33.1105 18.2893 33.2123 18.1717 33.2796 18.0343C33.3469 17.8969 33.3772 17.7444 33.3678 17.5917C33.3566 13.6513 33.3609 9.71059 33.3605 5.77002C33.3605 4.85919 33.1803 4.68107 32.2604 4.68096C28.2024 4.68089 24.1446 4.681 20.087 4.68128ZM20.0491 38.6422C24.6518 38.6422 29.2543 38.6412 33.8569 38.6392C34.1683 38.6317 34.4791 38.6086 34.7882 38.5699C34.9267 38.5557 35.118 38.5556 35.1612 38.4147C35.2088 38.2587 35.0168 38.1902 34.9155 38.1005C33.2028 36.5837 31.4885 35.0686 29.7725 33.5554C27.6974 31.7223 25.6237 29.8876 23.5515 28.0514C23.3042 27.8313 23.1306 27.8006 22.864 28.0278C22.37 28.4491 21.8483 28.8394 21.3263 29.2263C20.4809 29.8532 19.6138 29.8521 18.7708 29.2277C18.3321 28.9028 17.9059 28.5611 17.474 28.2271C16.8747 27.7637 16.8799 27.7693 16.3181 28.2668C14.1376 30.1967 11.9551 32.1243 9.77065 34.0496C8.2112 35.4258 6.6515 36.8017 5.09156 38.1773C5.01873 38.2419 4.89168 38.2964 4.92987 38.418C4.96514 38.5298 5.09957 38.5359 5.19477 38.5511C5.5276 38.6095 5.8646 38.6408 6.20247 38.6448C10.818 38.641 15.4335 38.6401 20.0491 38.6422ZM3.51764 17.3769C3.40475 17.5008 3.43711 17.6095 3.43711 17.7083C3.43552 23.8948 3.43496 30.0813 3.43545 36.2678C3.4358 36.5538 3.48412 36.8377 3.5784 37.1077C3.67964 37.4026 3.79232 37.4413 4.03839 37.2236C7.7854 33.909 11.5352 30.5972 15.2878 27.2885C15.7769 26.8563 15.8351 26.9474 15.2621 26.5014C11.7961 23.8031 8.32929 21.1059 4.86161 18.41C4.41494 18.0628 3.96421 17.72 3.51764 17.3769ZM36.6606 17.3318C36.4816 17.4582 36.3844 17.5212 36.2934 17.5919C32.4673 20.5683 28.6419 23.545 24.817 26.5222C24.2929 26.93 24.3057 26.8408 24.8016 27.2807C27.0278 29.2553 29.2578 31.2252 31.4918 33.1905C33.0214 34.5405 34.5504 35.8912 36.0786 37.2424C36.3194 37.4567 36.4157 37.3777 36.5156 37.1209C36.6509 36.7716 36.6613 36.4118 36.6613 36.0472C36.6608 29.9646 36.6608 23.8822 36.6613 17.7998C36.6606 17.6735 36.6606 17.5467 36.6606 17.3318ZM22.5636 3.27768C21.9358 2.70418 21.3879 2.15335 20.7852 1.67037C20.5919 1.50871 20.3503 1.41604 20.0986 1.40702C19.8468 1.39799 19.5992 1.47312 19.3949 1.62053C18.7325 2.08354 18.174 2.67827 17.5637 3.27768H22.5636ZM34.7475 14.5271V16.7149C34.7475 16.922 34.8271 16.9374 34.9775 16.819C35.3128 16.5547 35.6477 16.2897 35.9895 16.034C36.168 15.9004 36.1318 15.7915 35.9887 15.6624C35.5957 15.3076 35.2076 14.9485 34.7472 14.5267L34.7475 14.5271ZM5.34834 14.5297C4.87503 14.9644 4.46738 15.3393 4.0591 15.7135C3.94464 15.8181 3.96046 15.9143 4.07585 16.0038C4.43491 16.2825 4.79315 16.5623 5.15471 16.8376C5.27655 16.9304 5.34761 16.8896 5.34782 16.7379C5.34865 16.029 5.34804 15.3206 5.34804 14.5293L5.34834 14.5297Z" fill="#112BB1"/>
<path d="M22.6319 12.2035C22.6494 12.1608 22.6636 12.1169 22.6743 12.072C22.7387 11.5584 23.0163 11.2594 23.4093 11.2826C23.8273 11.3072 24.1032 11.6363 24.1064 12.1638C24.1149 13.607 24.1104 15.0502 24.1104 16.4934C24.1104 16.7677 24.1214 17.0356 24.2625 17.2867C24.5167 17.7388 25.0512 18.0177 25.5366 17.9352C26.1211 17.8358 26.6128 17.4195 26.6402 16.8812C26.717 15.3709 26.7185 13.8712 26.0223 12.4559C24.7881 9.94692 22.1673 8.35344 19.1853 8.76807C16.1271 9.1932 13.9497 11.3983 13.5012 14.3667C13.3713 15.2368 13.4167 16.1241 13.6347 16.9764C13.8528 17.8287 14.2391 18.6287 14.771 19.3294C15.3029 20.0302 15.9695 20.6175 16.7318 21.0567C17.494 21.496 18.3364 21.7783 19.2093 21.8871C20.852 22.0984 22.3558 21.7304 23.7361 20.8274C23.9307 20.7002 24.1118 20.5485 24.3643 20.5401C24.5012 20.5254 24.6393 20.5536 24.7595 20.6209C24.8796 20.6882 24.9759 20.7912 25.0348 20.9157C25.1071 21.0414 25.1341 21.1881 25.1114 21.3314C25.0887 21.4746 25.0176 21.6058 24.91 21.703C24.782 21.8324 24.6386 21.9455 24.4829 22.0397C21.5884 23.8121 18.6398 23.8956 15.7589 22.1032C13.1539 20.4826 11.9272 18.0188 12.0087 14.9644C12.1115 11.1146 15.1623 7.83581 19.002 7.35168C20.0649 7.20987 21.1455 7.28268 22.1798 7.56581C23.214 7.84894 24.181 8.33664 25.0235 9.00005C25.866 9.66345 26.5669 10.4891 27.0847 11.4281C27.6025 12.3672 27.9267 13.4005 28.0381 14.467C28.1393 15.373 28.1872 16.2879 28.0252 17.1861C27.8232 18.3068 27.1088 19.0237 26.0171 19.2814C24.9466 19.5341 24.0009 19.2308 23.2986 18.3541C23.0969 18.1022 23.0034 18.0794 22.7505 18.3052C21.5494 19.3776 20.1509 19.6503 18.6497 19.1047C17.1586 18.5627 16.267 17.452 16.0485 15.8775C15.7163 13.4851 17.4619 11.401 19.8753 11.2786C20.754 11.2381 21.6212 11.4918 22.3395 11.9997C22.4329 12.0635 22.5251 12.1291 22.6319 12.2035ZM22.6748 15.3291C22.6723 14.6326 22.3936 13.9656 21.9 13.4743C21.4063 12.983 20.738 12.7075 20.0415 12.7082C19.3451 12.7106 18.6781 12.989 18.1867 13.4825C17.6954 13.976 17.4198 14.6442 17.4205 15.3406C17.4325 16.0303 17.7116 16.6884 18.199 17.1765C18.6864 17.6645 19.3442 17.9445 20.0338 17.9574C21.4496 17.9758 22.6765 16.7545 22.6748 15.3291Z" fill="#112BB1"/>
</svg>
