<svg width="40" height="40" viewBox="0 0 40 40" fill="none" xmlns="http://www.w3.org/2000/svg">
<g clip-path="url(#clip0_1_424)">
<path d="M28.7442 22.9936C28.5341 22.784 28.2494 22.6663 27.9526 22.6663C27.6558 22.6663 27.3712 22.784 27.161 22.9936L22.3804 27.7743C22.3043 27.85 22.2042 27.8969 22.0973 27.9069C21.9904 27.9168 21.8833 27.8893 21.7945 27.829C19.9023 26.5417 18.1361 25.0784 16.5194 23.4585C14.8996 21.8419 13.4363 20.0757 12.149 18.1835C12.0888 18.0947 12.0613 17.9876 12.0714 17.8807C12.0814 17.7738 12.1283 17.6737 12.2041 17.5976L16.9847 12.8169C17.1943 12.6068 17.312 12.3221 17.312 12.0253C17.312 11.7285 17.1943 11.4438 16.9847 11.2337L8.42566 2.67503C8.32171 2.57109 8.19831 2.48863 8.0625 2.43238C7.92669 2.37612 7.78113 2.34717 7.63413 2.34717C7.48713 2.34717 7.34157 2.37612 7.20576 2.43238C7.06995 2.48863 6.94655 2.57109 6.84261 2.67503L1.42339 8.09425C0.864942 8.65565 0.448171 9.34194 0.20755 10.0964C-0.0330708 10.8508 -0.0906269 11.6516 0.0396421 12.4327C1.08472 18.7198 4.52542 25.0475 9.72808 30.25C14.9117 35.4336 21.2138 38.8765 27.4735 39.9446C28.2572 40.0783 29.0615 40.0228 29.8194 39.7826C30.5773 39.5424 31.2669 39.1246 31.8305 38.5639L37.2809 33.1134C37.4905 32.9033 37.6082 32.6186 37.6082 32.3218C37.6082 32.0251 37.4905 31.7404 37.2809 31.5303L28.7442 22.9936ZM30.4574 37.191C30.1136 37.5328 29.693 37.7874 29.2307 37.9334C28.7684 38.0795 28.2778 38.1128 27.8 38.0306C21.9333 37.0296 16.0032 33.7789 11.1011 28.8771C6.18245 23.9585 2.93433 18.0053 1.95511 12.1143C1.87519 11.6379 1.90982 11.1494 2.05614 10.6892C2.20245 10.2289 2.45624 9.81004 2.79652 9.4673L7.63417 4.62956L15.0302 12.0256L10.831 16.2248C10.4363 16.6204 10.1916 17.141 10.1389 17.6973C10.0862 18.2536 10.2286 18.811 10.5419 19.2737C11.8981 21.2675 13.4398 23.1285 15.1464 24.8319C16.8498 26.5385 18.7108 28.0802 20.7046 29.4364C21.1673 29.7496 21.7246 29.8921 22.2809 29.8394C22.8372 29.7866 23.3578 29.5419 23.7535 29.1473L27.9528 24.9481L35.3267 32.3219L30.4574 37.191Z" fill="#112BB1"/>
<path d="M39.9453 17.0265C38.9503 12.8988 36.835 9.12596 33.8327 6.12365C30.8303 3.12134 27.0574 1.00614 22.9297 0.0111268C22.6793 -0.0488992 22.4153 -0.00699492 22.1958 0.127621C21.9763 0.262237 21.8193 0.478538 21.7592 0.728939C21.6992 0.979341 21.7411 1.24333 21.8757 1.46284C22.0103 1.68234 22.2266 1.83938 22.477 1.89941C26.2563 2.81084 29.7107 4.7477 32.4597 7.49664C35.2087 10.2456 37.1456 13.6999 38.0571 17.4792C38.1171 17.7296 38.2742 17.9459 38.4937 18.0805C38.7132 18.2151 38.9772 18.257 39.2276 18.197C39.478 18.137 39.6943 17.9799 39.8289 17.7604C39.9635 17.5409 40.0054 17.2769 39.9454 17.0265H39.9453Z" fill="#112BB1"/>
<path d="M22.3684 9.29844C24.2666 9.99957 25.9905 11.1036 27.4214 12.5345C28.8523 13.9654 29.9563 15.6892 30.6575 17.5875C30.7009 17.7078 30.7678 17.8184 30.8541 17.9128C30.9405 18.0072 31.0446 18.0836 31.1606 18.1377C31.2766 18.1917 31.4021 18.2223 31.53 18.2276C31.6578 18.233 31.7854 18.213 31.9055 18.1689C32.0256 18.1247 32.1358 18.0573 32.2298 17.9704C32.3237 17.8836 32.3996 17.779 32.453 17.6627C32.5064 17.5465 32.5362 17.4208 32.5409 17.2929C32.5456 17.165 32.5249 17.0375 32.4801 16.9177C31.6818 14.7552 30.4244 12.7914 28.7945 11.1614C27.1645 9.53149 25.2007 8.27411 23.0382 7.47586C22.7965 7.38703 22.5295 7.39785 22.2958 7.50594C22.062 7.61403 21.8808 7.81054 21.792 8.05222C21.7032 8.29391 21.714 8.56099 21.8221 8.7947C21.9302 9.02841 22.1267 9.20961 22.3684 9.29844Z" fill="#112BB1"/>
</g>
<defs>
<clipPath id="clip0_1_424">
<rect width="40" height="40" fill="white"/>
</clipPath>
</defs>
</svg>
