<svg width="80" height="80" viewBox="0 0 80 80" fill="none" xmlns="http://www.w3.org/2000/svg">
<path d="M4.44265 54.8024C-3.55156 30.9224 -1.64919 17.0811 17.5176 10.6774C36.6843 4.27375 44.7227 -6.18918 66.4876 4.78879C88.2525 15.7668 79.1568 56.3278 70.7106 67.3058C62.2645 78.2837 49.3157 81.3346 38.4102 79.5033C27.5088 77.6759 11.7978 76.7741 4.44265 54.8024Z" fill="#FF9515"/>
<path d="M48.6326 47.3131C49.2209 49.7195 49.8092 51.6631 50.2995 53.6993C50.3976 54.1621 50.5937 54.7174 50.6918 55.1802C50.8879 56.0131 50.6918 56.8461 49.8092 57.3089C48.9267 57.7716 48.1423 57.4014 47.5539 56.7536C45.7889 54.8099 44.0239 52.7738 42.2589 50.8302C41.8667 50.3674 41.4744 49.9972 40.788 49.3493C40.1997 51.2929 39.6113 52.9589 39.023 54.6248C38.5327 56.0131 38.1405 57.494 37.4541 58.7897C37.258 59.3451 36.4735 59.9004 35.9832 59.9929C35.0027 60.0855 34.7085 59.2525 34.6105 58.5121C34.4143 56.4759 34.3163 54.3472 34.1202 52.311C34.0221 51.0153 33.9241 49.7195 33.7279 48.0536C32.7474 48.4238 32.061 48.6089 31.3746 48.8865C29.3154 49.627 27.2562 50.4599 25.2951 51.2004C24.6087 51.478 23.9223 51.6631 23.2359 51.7557C22.1572 51.9408 20.9806 51.9408 20.2942 50.9227C19.7058 50.0897 20 48.9791 21.1767 47.961C23.1378 46.295 25.0989 44.8142 27.1581 43.2408C27.7465 42.778 28.3348 42.3153 29.0212 41.7599C26.962 40.8344 24.9028 39.9089 23.0398 38.9833C21.0786 38.0578 20.4903 37.1323 20.8825 36.0216C21.2747 34.911 22.3534 34.3557 24.4126 34.5408C26.6679 34.7259 28.9232 35.0035 31.1785 35.1887C32.159 35.2812 33.1396 35.1887 34.4143 35.1887C34.2182 33.8004 34.2182 32.6897 34.0221 31.5791C33.6299 29.728 33.1396 27.9695 32.7474 26.1184C32.6493 25.4706 32.5513 24.8227 32.5513 24.1748C32.6493 23.2493 33.0415 22.4163 34.1202 22.1386C35.1007 21.861 35.8852 22.2312 36.3755 22.9716C37.8463 24.7301 39.023 26.4886 40.2977 28.1546C40.788 28.895 41.2783 29.6355 42.2589 30.2833C42.6511 28.2472 42.9453 26.3035 43.3375 24.2674C43.5336 23.4344 43.6317 22.5089 43.9258 21.6759C44.3181 20.4727 45.1025 19.9174 46.0831 20.0099C47.1617 20.195 47.652 20.9354 47.8481 21.861C48.1423 24.1748 48.3384 26.3961 48.5345 28.7099C48.6326 29.2652 48.6326 29.9131 48.6326 30.7461C49.417 30.4684 50.0054 30.1908 50.5937 29.9131C52.0646 29.1727 53.5354 28.4323 55.0063 27.7844C56.7713 26.9514 57.7518 26.9514 58.4382 27.8769C59.0266 28.7099 58.8305 29.6355 57.5557 31.0238C56.379 32.3195 55.2024 33.6152 54.0257 34.911C53.1432 35.8365 52.3587 36.8546 51.3782 37.9652C51.7704 38.428 52.1626 38.8908 52.6529 39.261C54.8101 41.4823 57.0654 43.7036 59.2227 45.9248C59.9091 46.6653 60.3013 47.4057 59.713 48.3312C59.1246 49.2567 58.2421 49.2567 57.2616 49.0716C54.516 48.5163 51.7704 47.961 48.6326 47.3131Z" fill="white"/>
</svg>
