<svg width="70" height="48" viewBox="0 0 70 48" fill="none" xmlns="http://www.w3.org/2000/svg">
<rect width="70" height="48" rx="4" fill="black"/>
<path fill-rule="evenodd" clip-rule="evenodd" d="M33.0603 31.5159V25.474H36.1786C37.4564 25.474 38.535 25.0459 39.4142 24.2014L39.6252 23.9873C41.2313 22.239 41.1258 19.5154 39.4142 17.8979C38.5584 17.0415 37.3861 16.5777 36.1786 16.6015H31.1729V31.5159H33.0603ZM33.0605 23.6424V18.433H36.2262C36.9063 18.433 37.5512 18.6947 38.0319 19.1704C39.052 20.1695 39.0754 21.8346 38.0905 22.8693C37.6098 23.3807 36.9297 23.6662 36.2262 23.6424H33.0605ZM48.4293 22.1082C47.6204 21.3589 46.5185 20.9783 45.1234 20.9783C43.3298 20.9783 41.9816 21.6443 41.0906 22.9645L42.7553 24.023C43.3649 23.1191 44.1973 22.6672 45.2524 22.6672C45.9206 22.6672 46.5653 22.9169 47.0694 23.3689C47.5618 23.7971 47.8432 24.4155 47.8432 25.0697V25.5097C47.1163 25.1053 46.2019 24.8913 45.0765 24.8913C43.7635 24.8913 42.7084 25.2005 41.923 25.8308C41.1375 26.4612 40.739 27.2937 40.739 28.3523C40.7155 29.3156 41.1258 30.2314 41.8527 30.8499C42.5912 31.5159 43.5291 31.849 44.631 31.849C45.9323 31.849 46.9639 31.2662 47.7494 30.1006H47.8314V31.5159H49.6368V25.2243C49.6368 23.9041 49.2382 22.8575 48.4293 22.1082ZM43.3066 29.6368C42.9197 29.3513 42.6852 28.8875 42.6852 28.3879C42.6852 27.8289 42.9432 27.3651 43.4473 26.9964C43.9632 26.6277 44.6081 26.4374 45.3702 26.4374C46.4255 26.4255 47.2462 26.6634 47.8325 27.1391C47.8325 27.9479 47.5159 28.6496 46.8945 29.2443C46.3317 29.8152 45.5696 30.1363 44.7723 30.1363C44.2446 30.1482 43.7287 29.9698 43.3066 29.6368ZM53.693 35.9998L60.0001 21.3113H57.9485L55.0295 28.6377H54.9943L52.0049 21.3113H49.9534L54.0916 30.8618L51.747 35.9998H53.693Z" fill="white"/>
<path d="M26.5442 24.1657C26.5442 23.5829 26.4973 23.0001 26.4035 22.4292H18.4435V25.7237H23.0038C22.8162 26.7822 22.2066 27.7337 21.3156 28.3284V30.4692H24.0354C25.6298 28.9825 26.5442 26.7822 26.5442 24.1657Z" fill="#4285F4"/>
<path d="M18.4438 32.5387C20.7181 32.5387 22.6407 31.7775 24.0358 30.4693L21.316 28.3284C20.554 28.8517 19.581 29.1491 18.4438 29.1491C16.2399 29.1491 14.3759 27.6386 13.7077 25.6167H10.9059V27.8289C12.3361 30.719 15.2552 32.5387 18.4438 32.5387Z" fill="#34A853"/>
<path d="M13.708 25.6167C13.3563 24.5582 13.3563 23.4045 13.708 22.3341V20.1338H10.9058C9.69808 22.5482 9.69808 25.4026 10.9058 27.817L13.708 25.6167Z" fill="#FBBC04"/>
<path d="M18.4438 18.8018C19.6513 18.778 20.8119 19.2419 21.6794 20.0863L24.0944 17.6362C22.5587 16.1852 20.5423 15.3884 18.4438 15.4121C15.2552 15.4121 12.3361 17.2437 10.9059 20.1339L13.7077 22.3461C14.3759 20.3123 16.2399 18.8018 18.4438 18.8018Z" fill="#EA4335"/>
</svg>
