<svg width="70" height="48" viewBox="0 0 70 48" fill="none" xmlns="http://www.w3.org/2000/svg">
<rect width="70" height="48" rx="4" fill="#253B80"/>
<path fill-rule="evenodd" clip-rule="evenodd" d="M18.2474 18.127H14.8185C14.5838 18.127 14.3843 18.2975 14.3477 18.529L12.9609 27.3218C12.9333 27.4953 13.0677 27.6517 13.2437 27.6517H14.8807C15.1153 27.6517 15.3149 27.4812 15.3514 27.2491L15.7255 24.8776C15.7616 24.6454 15.9616 24.4751 16.1958 24.4751H17.2812C19.54 24.4751 20.8435 23.382 21.1841 21.2161C21.3375 20.2685 21.1906 19.524 20.7467 19.0024C20.2595 18.43 19.395 18.127 18.2474 18.127ZM18.643 21.3384C18.4555 22.5688 17.5154 22.5688 16.6064 22.5688H16.089L16.452 20.2708C16.4735 20.1321 16.5939 20.0298 16.7343 20.0298H16.9714C17.5906 20.0298 18.1748 20.0298 18.4766 20.3827C18.6564 20.5933 18.7117 20.9061 18.643 21.3384ZM28.4972 21.2989H26.8552C26.7153 21.2989 26.5944 21.4013 26.5728 21.5402L26.5002 21.9994L26.3853 21.833C26.0299 21.317 25.2373 21.1446 24.4461 21.1446C22.6315 21.1446 21.0818 22.5189 20.7799 24.4468C20.6231 25.4083 20.846 26.3278 21.3915 26.9691C21.892 27.5587 22.608 27.8044 23.4598 27.8044C24.9217 27.8044 25.7327 26.8642 25.7327 26.8642L25.6593 27.3206C25.6317 27.4951 25.7661 27.6515 25.941 27.6515H27.4202C27.6554 27.6515 27.8538 27.4809 27.8909 27.2489L28.7784 21.6289C28.8065 21.456 28.6726 21.2989 28.4972 21.2989ZM26.2083 24.4948C26.0498 25.4329 25.3053 26.0626 24.3558 26.0626C23.879 26.0626 23.4978 25.9097 23.2533 25.6199C23.0106 25.3322 22.9182 24.9224 22.9955 24.4663C23.1435 23.5361 23.9006 22.886 24.8357 22.886C25.3018 22.886 25.6809 23.0407 25.9306 23.3331C26.1807 23.6284 26.28 24.0405 26.2083 24.4948ZM35.5922 21.2987H37.2424C37.4735 21.2987 37.6083 21.5579 37.4769 21.7474L31.9889 29.6691C31.9 29.7974 31.7536 29.8738 31.5973 29.8738H29.9492C29.7172 29.8738 29.5817 29.6125 29.716 29.4225L31.4249 27.0104L29.6074 21.6767C29.5446 21.4913 29.6815 21.2987 29.8787 21.2987H31.5C31.7107 21.2987 31.8966 21.437 31.9574 21.6386L32.9219 24.86L35.1978 21.5078C35.2869 21.3769 35.4349 21.2987 35.5922 21.2987Z" fill="white"/>
<path fill-rule="evenodd" clip-rule="evenodd" d="M53.4835 27.3213L54.8907 18.3677C54.9123 18.2288 55.0327 18.1264 55.1726 18.126H56.7568C56.9318 18.126 57.0661 18.2828 57.0385 18.4564L55.6508 27.2486C55.6146 27.4807 55.415 27.6512 55.18 27.6512H53.7651C53.5902 27.6512 53.4559 27.4948 53.4835 27.3213ZM42.7063 18.1264H39.2767C39.0426 18.1264 38.8431 18.297 38.8064 18.5285L37.4196 27.3213C37.392 27.4948 37.5264 27.6512 37.7015 27.6512H39.4612C39.6248 27.6512 39.7647 27.5319 39.7902 27.3695L40.1837 24.8771C40.2199 24.6449 40.4199 24.4746 40.654 24.4746H41.739C43.9982 24.4746 45.3014 23.3815 45.6423 21.2156C45.7961 20.268 45.6483 19.5234 45.2047 19.0019C44.7177 18.4295 43.8538 18.1264 42.7063 18.1264ZM43.1019 21.3379C42.9148 22.5683 41.9747 22.5683 41.0652 22.5683H40.5482L40.9118 20.2703C40.9334 20.1316 41.0526 20.0293 41.1935 20.0293H41.4306C42.0494 20.0293 42.6341 20.0293 42.9357 20.3822C43.1158 20.5928 43.1705 20.9056 43.1019 21.3379ZM52.9551 21.2984H51.3143C51.1732 21.2984 51.0535 21.4007 51.0324 21.5397L50.9598 21.9989L50.8444 21.8325C50.489 21.3165 49.6969 21.1441 48.9057 21.1441C47.091 21.1441 45.5418 22.5184 45.2399 24.4463C45.0836 25.4078 45.3056 26.3273 45.8511 26.9686C46.3525 27.5581 47.0676 27.8039 47.9193 27.8039C49.3813 27.8039 50.192 26.8637 50.192 26.8637L50.1189 27.3201C50.0913 27.4946 50.2256 27.651 50.4017 27.651H51.8802C52.1143 27.651 52.3138 27.4804 52.3505 27.2484L53.2384 21.6284C53.2656 21.4555 53.1313 21.2984 52.9551 21.2984ZM50.6665 24.4943C50.5089 25.4324 49.7634 26.0621 48.8138 26.0621C48.3379 26.0621 47.956 25.9092 47.7112 25.6194C47.4685 25.3317 47.3773 24.9219 47.4537 24.4658C47.6024 23.5356 48.3586 22.8855 49.2936 22.8855C49.76 22.8855 50.1389 23.0402 50.3887 23.3326C50.6398 23.6279 50.7391 24.04 50.6665 24.4943Z" fill="#179BD7"/>
</svg>
