<svg width="197" height="64" viewBox="0 0 197 64" fill="none" xmlns="http://www.w3.org/2000/svg">
<path d="M111.307 0.682712C121.006 1.41928 130.66 2.09986 140.355 2.99835C148.395 3.71843 156.424 4.76236 164.39 6.29005C169.859 7.33322 175.272 8.59027 180.463 10.8648C182.661 11.823 184.852 12.9972 186.943 14.3292C190.381 16.5292 193.077 19.6706 195.037 23.5375C196.821 27.0185 197.457 30.775 196.663 34.7409C196.149 37.4216 194.892 39.5842 193.171 41.4569C190.811 44.005 188.137 45.9994 185.191 47.6038C179.252 50.8106 173.104 53.1437 166.7 54.6011C158.051 56.5576 149.321 58.0784 140.511 59.1632C131.89 60.2562 123.27 61.2951 114.611 62.1162C108.569 62.6701 102.495 62.7363 96.4618 63.0204C94.5618 63.1017 92.6618 63.1831 90.8092 63.2666C88.625 63.3359 86.4391 63.4592 84.2075 63.5265C78.1304 63.7006 72.006 63.8727 65.9306 63.9928C59.8097 64.0569 53.7503 63.6913 47.6558 62.9458C41.8438 62.2664 36.0862 61.3731 30.3445 59.994C24.7431 58.6749 19.2015 56.98 13.9266 54.3776C11.3603 53.0794 8.89571 51.5693 6.6365 49.5815C4.8842 48.0477 3.32843 46.306 2.11835 44.1466C-0.21238 39.9938 -0.639603 35.6516 0.934941 31.0162C1.92845 28.1937 3.38327 25.7692 5.20997 23.5768C8.02636 20.1292 11.3408 17.4054 14.9254 15.1255C19.7224 12.0323 24.8245 9.76282 30.1054 7.82526C37.404 5.10866 44.9042 3.48163 52.4867 2.23645C62.0237 0.695991 71.6253 0.077133 81.2567 4.36572e-05C91.3126 -0.00495144 101.307 0.419844 111.307 0.682712Z" fill="#2FC6A2"/>
</svg>
